<?xml version="1.0" encoding="UTF-8" standalone="no"?>
<!-- Created with Inkscape (http://www.inkscape.org/) -->

<svg
   xmlns:dc="http://purl.org/dc/elements/1.1/"
   xmlns:cc="http://creativecommons.org/ns#"
   xmlns:rdf="http://www.w3.org/1999/02/22-rdf-syntax-ns#"
   xmlns:svg="http://www.w3.org/2000/svg"
   xmlns="http://www.w3.org/2000/svg"
   xmlns:sodipodi="http://sodipodi.sourceforge.net/DTD/sodipodi-0.dtd"
   xmlns:inkscape="http://www.inkscape.org/namespaces/inkscape"
   width="1921"
   height="1600"
   viewBox="0 0 508.26457 423.33335"
   version="1.1"
   id="svg8"
   sodipodi:docname="background_art.svg"
   inkscape:version="0.92.4 (f8dce91, 2019-08-02)">
  <defs
     id="defs2">
    <filter
       inkscape:label="Drop Shadow"
       inkscape:menu="Bumps"
       inkscape:menu-tooltip="Specular emboss effect"
       style="color-interpolation-filters:sRGB"
       id="filter3182">
      <feColorMatrix
         in="SourceGraphic"
         type="luminanceToAlpha"
         result="result2"
         id="feColorMatrix3172" />
      <feSpecularLighting
         result="result10"
         specularExponent="15"
         surfaceScale="-15"
         specularConstant="1"
         id="feSpecularLighting3176">
        <feDistantLight
           azimuth="225"
           elevation="25"
           id="feDistantLight3174" />
      </feSpecularLighting>
      <feComposite
         in2="SourceGraphic"
         k3="1"
         k2="1"
         operator="arithmetic"
         result="result9"
         in="result10"
         id="feComposite3178"
         k1="0"
         k4="0" />
      <feComposite
         in="result9"
         operator="in"
         result="fbSourceGraphic"
         in2="SourceGraphic"
         id="feComposite3180" />
      <feColorMatrix
         result="fbSourceGraphicAlpha"
         in="fbSourceGraphic"
         values="0 0 0 -1 0 0 0 0 -1 0 0 0 0 -1 0 0 0 0 1 0"
         id="feColorMatrix3234" />
      <feFlood
         id="feFlood3236"
         flood-opacity="0.498039"
         flood-color="rgb(0,0,0)"
         result="flood"
         in="fbSourceGraphic" />
      <feComposite
         in2="fbSourceGraphic"
         id="feComposite3238"
         in="flood"
         operator="in"
         result="composite1" />
      <feGaussianBlur
         id="feGaussianBlur3240"
         in="composite1"
         stdDeviation="77.5"
         result="blur" />
      <feOffset
         id="feOffset3242"
         dx="6"
         dy="6"
         result="offset" />
      <feComposite
         in2="offset"
         id="feComposite3244"
         in="fbSourceGraphic"
         operator="over"
         result="composite2" />
    </filter>
  </defs>
  <sodipodi:namedview
     id="base"
     pagecolor="#141824"
     bordercolor="#666666"
     borderopacity="1.0"
     inkscape:pageopacity="0"
     inkscape:pageshadow="2"
     inkscape:zoom="0.35"
     inkscape:cx="674.28571"
     inkscape:cy="808.57143"
     inkscape:document-units="px"
     inkscape:current-layer="layer1"
     showgrid="true"
     units="px"
     inkscape:window-width="1920"
     inkscape:window-height="1016"
     inkscape:window-x="0"
     inkscape:window-y="27"
     inkscape:window-maximized="1"
     inkscape:pagecheckerboard="true"
     inkscape:snap-bbox="true">
    <inkscape:grid
       type="xygrid"
       id="grid956" />
  </sodipodi:namedview>
  <metadata
     id="metadata5">
    <rdf:RDF>
      <cc:Work
         rdf:about="">
        <dc:format>image/svg+xml</dc:format>
        <dc:type
           rdf:resource="http://purl.org/dc/dcmitype/StillImage" />
        <dc:title></dc:title>
      </cc:Work>
    </rdf:RDF>
  </metadata>
  <g
     inkscape:label="background"
     inkscape:groupmode="layer"
     id="layer1"
     transform="translate(0,126.33335)"
     style="display:inline"
     sodipodi:insensitive="true">
    <rect
       style="opacity:1;fill:#141824;fill-opacity:1;fill-rule:evenodd;stroke-width:1.09544516;paint-order:stroke fill markers"
       id="rect3348"
       width="508"
       height="423.33334"
       x="0"
       y="-126.33335" />
  </g>
  <g
     inkscape:groupmode="layer"
     id="layer4"
     inkscape:label="sign"
     style="display:inline"
     sodipodi:insensitive="true">
    <path
       style="fill:#f6b601;fill-opacity:1;fill-rule:nonzero;stroke:#f6b601;stroke-width:0.26458332;stroke-opacity:1"
       id="path2933"
       d="m 291.97323,1.5062863 c -11.09339,8.177376 -23.7722,13.7976307 -36.17709,19.6408007 -17.9436,8.22129 -36.39833,15.405801 -53.87246,24.630875 -3.39061,1.790001 -6.68625,3.7544 -10.02937,5.6316 -15.16764,8.943621 -30.05526,18.355805 -44.32665,28.673626 -8.768,6.42843 -17.57635,12.792792 -26.5935,18.867464 -2.42604,1.665668 -4.96212,3.172238 -7.3658,4.871428 -0.34318,0.2426 -1.31858,1.03816 -0.96377,0.8129 0.23166,-0.14706 0.4315,-0.33909 0.64725,-0.50864 0.65642,-0.73261 1.33341,-1.4473 1.96926,-2.19783 0.19474,-0.22987 0.27423,-0.56457 0.51939,-0.73966 0.3905,-0.2789 -0.45014,0.84766 -0.68205,1.26777 -0.96512,1.74842 -0.79756,1.42449 -1.92688,3.26428 -0.74325,1.24054 -1.25379,2.60411 -1.78914,3.9477 -0.11876,0.33167 -0.23751,0.66334 -0.35627,0.99502 -0.008,0.0878 -0.068,0.33926 -0.023,0.26348 1.04299,-1.75506 0.43103,-4.74414 0.17476,-6.53476 -1.40007,-3.65555 -1.09144,-3.7207 -3.39642,-6.659634 -0.45002,-0.573791 -1.00466,-1.057717 -1.52694,-1.566611 -0.26142,-0.254709 -1.18756,-0.725771 -0.82259,-0.722678 0.63481,0.0054 1.16218,0.513638 1.75879,0.730613 0.64273,0.233748 1.30383,0.413527 1.95574,0.620291 8.97171,2.892499 18.04671,5.565679 27.31593,7.339579 2.70631,0.51792 5.43529,0.90937 8.15294,1.36405 14.61713,1.86802 29.40242,2.0112 44.05843,0.52056 2.24912,-0.22876 4.4856,-0.56819 6.7284,-0.85228 8.17788,-1.01539 16.14157,-3.0366 24.00921,-5.414925 6.56249,-2.103036 13.3104,-3.368649 20.11458,-4.355436 4.85555,-0.669203 9.75044,-1.303269 14.65723,-0.790575 1.27424,0.133141 2.53079,0.400889 3.79619,0.601332 5.85064,1.349121 11.42541,3.653459 17.04656,5.722374 6.72182,2.3785 13.57125,4.36394 20.35165,6.56582 3.15203,1.11032 6.34426,2.14349 9.33757,3.65077 2.39501,1.20601 2.73404,1.51597 4.95027,2.96689 3.92147,2.63127 6.82787,6.3238 9.72024,9.97871 1.50188,1.82235 3.08713,3.56854 4.56679,5.41031 3.99272,4.94925 5.7608,10.61876 6.56426,16.80265 0.57033,5.12515 -0.3075,10.18452 -1.54102,15.13912 -0.59827,2.62305 -1.45417,5.17454 -2.67208,7.58331 -0.82687,1.63539 -1.85668,2.97643 -2.72872,4.52657 -1.20219,2.72459 -2.45915,5.42237 -3.73298,8.11462 -2.04775,4.45349 -5.16052,8.18633 -8.74231,11.47058 -0.47358,0.44714 -0.49507,0.43524 -1.7453,2.19176 -1.67317,2.903 -3.5528,5.66029 -5.55091,8.34906 -3.51671,4.62922 -8.07307,8.22129 -12.78011,11.55153 -1.29934,0.86749 -2.48825,1.8736 -3.62966,2.93546 0.11951,-0.0982 0.4631,-0.4086 0.35851,-0.29463 -3.429,3.73612 -7.62691,6.62277 -11.88514,9.3086 -5.26716,2.9658 -10.98775,4.95741 -16.51503,7.36448 -3.55345,1.61874 -7.18598,3.05571 -10.83821,4.4342 -1.92006,0.65505 -2.01304,0.71982 -4.02433,1.26522 -0.53031,0.1438 -2.11002,0.59995 -1.6006,0.39403 0.64117,-0.25918 1.34154,-0.34085 1.99908,-0.55511 0.45938,-0.14969 0.8933,-0.70123 1.34703,-0.53521 0.40787,0.14923 -0.76893,0.40404 -1.15339,0.60606 -4.2697,2.21308 -8.7129,4.05429 -13.12869,5.94852 -1.50471,0.48431 -2.64272,1.42475 -3.87802,2.32802 -3.89003,2.88197 -8.1397,5.17592 -12.50923,7.23228 -2.58218,1.40538 -5.85428,2.24634 -8.32394,3.83883 -2.28523,1.31258 -4.65118,2.46349 -7.05519,3.54133 -4.47172,2.06405 -9.14517,3.60917 -13.83227,5.09584 -5.89636,1.97453 -11.82601,3.88191 -17.63192,6.11356 -4.03752,1.59002 -8.06888,3.18659 -12.16714,4.61484 -5.31891,1.53411 -10.581,3.23686 -15.86636,4.87847 -3.33798,0.94429 -6.65966,1.94625 -9.97919,2.95349 -1.94312,0.5421 -3.17938,1.1082 -4.77674,1.85846 -1.74131,0.89024 -3.46189,1.83745 -5.15204,2.8245 -1.05719,0.70575 -1.98556,1.59065 -2.96411,2.39922 -3.06744,2.72248 -6.56654,4.84579 -10.13799,6.82855 -0.73094,0.4141 -1.15396,0.63389 -1.81437,1.06513 -0.14347,0.0937 -0.58133,0.35399 -0.41994,0.29644 0.21258,-0.0758 0.71819,-0.52964 0.57793,-0.35279 -0.0196,0.0246 -1.85757,1.46084 -0.16279,0.13478 -1.19573,1.0446 -2.37777,2.10214 -3.52444,3.20029 -1.1732,1.27738 -2.603882,2.33929 -3.770723,3.59807 -2.813545,3.16751 -6.318332,5.48584 -9.913427,7.6522 -4.116613,2.39525 -8.530815,4.03685 -13.140317,5.18848 -4.17105,0.95303 -8.398825,1.61523 -12.58208,2.50904 -2.528134,0.56171 -5.01954,1.24164 -7.571193,1.71379 -0.587867,0.0829 -1.176387,0.16129 -1.763598,0.24868 -0.293624,0.0437 0.586245,-0.10366 0.882777,-0.11758 0.142721,-0.007 -0.27768,0.0678 -0.417793,0.0958 -1.809967,0.36135 -3.615608,0.60907 -5.45024,0.80328 -3.614242,0.3067 -7.245564,0.29316 -10.869855,0.30726 -3.6127,0.0257 -7.218016,0.35242 -10.827404,0.5235 -4.265888,0.15889 -8.521931,0.5333 -12.774044,0.90599 -3.848809,0.0752 -7.5752006,0.95602 -11.3262898,1.70434 -0.2923015,0.0743 -0.5843474,0.14957 -0.8769047,0.22281 -1.45048421,0.36322 -2.90339454,0.72154 -4.3710611,1.00983 -1.3971464,0.27445 -2.4461775,0.40899 -1.3480995,0.26173 -1.6033721,0.41034 0.271086,-0.0906 0.4119065,-0.10917 0.2017755,-0.0267 -0.7695435,0.26561 -0.5765495,0.201 0.251044,-0.0841 0.5052014,-0.16025 0.7507099,-0.25934 0.3588795,-0.14483 0.6738481,-0.47387 1.0608441,-0.47175 0.3347113,0.003 -0.5906179,0.31514 -0.8859267,0.4727 -2.1807069,1.04037 -1.2481132,0.64217 -4.4223114,2.33775 -0.9286785,0.65456 -3.1141338,1.90294 -4.5598638,2.78167 -2.918146,2.03261 -6.069034,3.68208 -9.238754,5.27924 -4.457475,2.12029 -9.086013,3.8378 -13.603652,5.82506 -4.610777,1.98528 -9.167148,4.09268 -13.883666,5.81785 -3.03856,0.905 -2.381136,1.19903 1.1621,-0.72068 2.409457,-1.30545 3.394784,-2.67538 0.699143,0.21096 -3.901368,4.05145 -7.205289,8.55644 -10.052513,13.39302 -1.388967,2.6774 -2.08281,5.63509 -2.529289,8.59975 -0.60116,3.42786 -0.346943,6.80186 0.207862,10.20067 0.08619,0.17878 0.146364,0.37261 0.258577,0.53628 0.05827,0.085 0.17236,0.11663 0.24143,0.19309 0.45295,0.5015 0.837022,1.06117 1.249121,1.59674 2.405494,3.12618 0.860095,1.22841 3.56225,4.40637 5.097758,6.05504 11.637676,10.37071 18.337778,14.43096 13.14149,7.86976 28.1079457,11.71963 42.7050035,15.90495 6.9959325,1.86631 13.9539265,3.95597 21.0895905,5.24626 1.836383,0.33208 4.133432,0.87167 6.099972,0.46109 0.276264,-0.0577 0.493717,-0.27355 0.740574,-0.41034 13.074308,-5.72733 25.612423,-12.63161 38.272092,-19.20883 22.801675,-11.96949 45.682534,-23.79308 68.184664,-36.32174 15.32641,-8.53336 16.24104,-9.16786 30.71237,-17.64215 13.96308,-8.06042 27.36967,-17.03353 41.18503,-25.33372 7.22299,-4.29834 13.48879,-9.99561 20.08841,-15.15208 3.10905,-2.42919 6.26529,-4.7974 9.39794,-7.19608 3.83583,-2.65851 7.59435,-5.43219 11.50749,-7.97555 7.22864,-4.69829 19.22487,-11.67241 26.74412,-15.86386 15.14695,-8.44333 30.61036,-16.32127 46.01734,-24.27339 39.62797,-20.36751 79.65712,-39.93557 119.43612,-60.00483 29.85709,-15.5958 60.19088,-30.27996 89.73939,-46.46113 10.75634,-6.14778 21.3678,-12.52497 32.46209,-18.05263 2.59244,-1.27078 5.36382,-2.41188 7.90181,-3.60413 28.63765,-13.21054 47.32017,27.28921 18.68252,40.49975 v 0 c 0.73615,-0.37694 -0.39772,0.20526 -1.53903,0.72982 -0.93998,0.43203 -2.11579,0.91091 -3.05255,1.33062 -0.71599,0.32081 -1.42592,0.65501 -2.13886,0.98251 -10.58048,5.24472 -20.61245,11.46252 -30.90434,17.2396 -29.99415,16.40435 -60.75024,31.3533 -91.06128,47.15603 -39.65741,20.00709 -79.56277,39.51721 -119.07115,59.81859 -12.41909,6.40871 -18.73046,9.61072 -30.89558,16.09463 -10.31832,5.49955 -15.89119,8.51641 -25.88823,14.39677 -3.7266,2.19202 -7.45982,4.37764 -11.09552,6.71737 -3.31454,2.13308 -6.49771,4.46366 -9.74656,6.69547 -2.86382,2.18813 -5.75166,4.3452 -8.59148,6.56439 -8.19372,6.40308 -16.03473,13.36546 -25.06191,18.61315 -13.96634,8.34742 -27.45796,17.48165 -41.58399,25.57007 -14.91835,8.72967 -16.05343,9.49587 -31.77733,18.24607 -22.80362,12.68999 -45.98276,24.68062 -69.089311,36.80502 -10.270154,5.33548 -12.786048,6.66247 -22.481458,11.63248 -9.628526,4.93573 -19.306603,10.06846 -30.038986,12.1498 -2.686704,0.28274 -5.359893,0.76372 -8.060111,0.84818 -4.974405,0.1556 -9.486899,-0.50935 -14.337969,-1.41817 -8.161796,-1.52903 -16.1487544,-3.83709 -24.1533698,-6.00959 -18.4803402,-5.31188 -37.2186732,-10.60148 -53.7378382,-20.76788 -2.109078,-1.30704 -4.251671,-2.56151 -6.327235,-3.92118 -8.543136,-5.59639 -16.326527,-12.25828 -22.979718,-20.01851 -7.310493,-8.91503 -13.045354,-17.02802 -15.118494,-28.67358 -0.47075,-3.31557 -0.72808,-4.64619 -0.92211,-8.03841 -0.31437,-5.49632 0.0812,-11.00151 0.90276,-16.43827 1.54195,-8.3348 3.883747,-16.4955 8.228488,-23.85468 4.547561,-7.4808 9.648754,-14.58129 15.729519,-20.90877 4.465357,-4.75716 9.131427,-9.28781 15.680605,-10.99987 3.789198,-1.23394 7.292189,-3.25858 11.010775,-4.67739 3.800872,-1.65745 7.650869,-3.19254 11.462107,-4.81925 2.15124,-1.0764 4.251712,-2.19871 6.213055,-3.60907 2.290506,-1.37732 4.568375,-2.77879 6.893068,-4.09628 1.418145,-0.60069 3.189388,-1.71358 4.523917,-2.40583 0.122113,-0.0633 -0.239155,0.13602 -0.358733,0.20404 3.192333,-1.69772 6.504483,-3.13406 10.054978,-3.90064 2.687453,-0.57936 5.380395,-1.12094 8.045586,-1.80809 5.33998395,-1.06047 10.6816703,-2.16566 16.140949,-2.39249 4.853566,-0.42534 9.712737,-0.83293 14.581615,-1.02748 4.247528,-0.19585 8.489156,-0.58936 12.743709,-0.57201 2.216645,-0.008 4.434258,-0.007 6.649659,-0.091 0.165015,-0.009 4.32289,-0.69799 3.513169,-0.58999 -0.251214,0.10406 0.535506,-0.0976 0.7986,-0.16624 1.807218,-0.4717 1.537629,-0.43905 3.733998,-0.94398 0.451335,-0.10377 0.90732,-0.18613 1.360977,-0.27921 3.832432,-0.81619 7.693475,-1.47463 11.528838,-2.27105 0.150342,-0.0262 0.580432,-0.15942 0.451022,-0.0785 -0.313711,0.19603 -0.68544,0.27921 -1.021075,0.43476 -0.04913,0.0228 -0.178533,0.12086 -0.129272,0.0984 0.794755,-0.36277 1.575294,-0.74789 2.351344,-1.1462 -1.131332,0.85246 -0.307044,0.16214 -0.849252,0.76592 -0.08575,0.0955 -0.344847,0.37967 -0.252278,0.2908 0.490776,-0.47122 0.924007,-1.00015 1.423681,-1.46262 1.981819,-1.94728 2.365081,-2.15958 4.408228,-4.21899 1.307063,-1.24547 2.624296,-2.48184 4.001987,-3.64953 3.265496,-2.87642 6.734453,-5.50214 10.620129,-7.50034 0.493662,-0.26749 0.98107,-0.5466 1.477984,-0.808 0.06425,-0.0338 0.224689,-0.15619 0.199093,-0.0883 -0.04443,0.11791 -0.366318,0.34505 -0.26675,0.26783 0.675926,-0.52424 1.29731,-1.11632 1.979565,-1.63298 2.89715,-2.31883 5.701607,-4.77423 8.986017,-6.55743 2.810728,-1.6063 5.638308,-3.19714 8.559448,-4.59471 3.4662,-1.60828 7.00586,-3.05552 10.68271,-4.11623 3.24862,-0.98316 6.49694,-1.97032 9.76461,-2.8879 4.81422,-1.47014 9.57838,-3.10072 14.44132,-4.41247 3.67113,-1.25193 7.24406,-2.7598 10.86663,-4.14253 6.61504,-2.50356 13.32913,-4.74424 20.04665,-6.95472 3.1298,-0.98802 6.26958,-1.95846 9.24582,-3.36148 1.53467,-0.64504 1.49909,-0.67225 3.81311,-1.94697 3.54312,-1.87862 7.19672,-3.52837 10.87667,-5.12119 1.73081,-0.76645 3.39914,-1.6328 4.92532,-2.76501 3.94069,-2.87915 8.07982,-5.45722 12.61505,-7.30933 3.34359,-1.43398 6.71678,-2.80589 9.9683,-4.4435 2.48287,-1.30393 6.19069,-3.12146 8.50458,-3.4483 2.94876,-1.09478 5.86682,-2.27294 8.72821,-3.58041 3.71356,-1.61164 7.45159,-3.16464 11.22447,-4.63145 0.54597,-0.19509 0.44694,-0.1258 1.06357,-0.59239 2.3824,-1.8027 0.0675,0.0408 3.38631,-3.12046 2.54896,-2.32384 5.19744,-4.53693 8.04248,-6.49383 0.96716,-0.68179 1.93699,-1.3978 2.92637,-2.00781 2.02856,-2.5419 3.36582,-5.54786 5.37313,-8.11213 2.27762,-3.01714 4.64085,-5.9976 7.47734,-8.51762 0.0938,-0.0836 0.16449,-0.2048 0.28144,-0.25081 0.089,-0.035 -0.12843,0.14178 -0.19011,0.21487 -0.69924,0.82873 -1.25846,1.64607 -1.75262,2.61756 -0.0318,0.0625 0.0847,-0.11159 0.1271,-0.16738 1.92381,-4.05957 3.64371,-8.22303 5.88733,-12.12181 0.38851,-0.63127 0.7698,-1.26703 1.16551,-1.89382 1.62015,-2.56624 -0.0557,0.21892 -0.36954,0.91334 -0.30073,0.66532 -0.52422,1.36341 -0.7561,2.05573 -0.0508,0.1516 -0.13206,0.62537 -0.0902,0.47107 0.12824,-0.4728 0.23307,-0.95163 0.34959,-1.42744 0.0833,-0.32631 0.14682,-0.65834 0.24998,-0.97892 0.0271,-0.0842 0.0544,0.41362 0.0584,0.25892 0.28403,-1.03345 -0.35134,-0.40658 0.14256,1.20278 0.45368,2.30591 1.4225,4.52076 2.96515,6.31749 -1.5195,-1.91055 -3.24601,-3.66332 -4.72879,-5.61387 -1.12289,-1.41995 -2.90925,-3.24661 -0.0628,-0.93402 0.44561,0.24336 0.654,0.38019 1.12506,0.55191 0.0428,0.0156 0.17648,0.0336 0.136,0.0127 -1.26482,-0.65147 -2.70524,-0.90574 -4.00267,-1.47776 -7.33772,-2.38296 -14.75531,-4.51902 -22.01356,-7.14199 -1.78051,-0.65819 -3.54461,-1.3604 -5.32703,-2.01342 -1.18135,-0.43282 -3.06997,-1.03626 -4.31436,-1.51585 -0.25835,-0.0996 -0.23275,-0.0833 -0.32054,-0.22533 0.61988,0.0225 1.03749,0.0636 1.66228,-0.0252 0.0329,-0.005 -0.048,-0.0598 -0.0812,-0.0581 -0.50561,0.0266 -1.00862,0.0901 -1.51226,0.14192 -1.7342,0.17838 -1.9564,0.22114 -3.76972,0.45839 -4.60823,0.66785 -9.1863,1.42316 -13.6209,2.91277 -10.29617,3.10604 -20.74816,5.64636 -31.43989,6.98331 -2.89757,0.35022 -5.78785,0.76705 -8.6927,1.05064 -18.32238,1.7888 -36.81049,1.47843 -55.054,-1.01788 -3.42088,-0.59213 -6.85579,-1.10819 -10.26263,-1.77637 -10.99605,-2.15665 -21.77617,-5.31174 -32.417601,-8.78779 -4.859687,-1.75895 -9.7584,-3.49069 -14.080501,-6.42189 -3.554243,-2.41045 -6.68543,-5.4077 -8.964094,-9.08333 -1.239856,-1.99997 -1.997477,-4.26127 -2.996215,-6.39191 -0.405636,-1.84817 -0.951717,-3.67102 -1.216906,-5.5445 -0.894726,-6.32098 0.57037,-12.699373 2.87138,-18.55287 1.534948,-3.750749 3.16693,-7.478466 5.350684,-10.906466 0.388176,-0.439822 0.781426,-1.358029 0.999226,-1.758058 1.519666,-2.791145 3.171542,-5.415674 5.419838,-7.719433 0.807419,-0.758714 1.590334,-1.544378 2.422255,-2.276142 3.621927,-3.185874 7.84414,-5.585555 11.815374,-8.287961 8.61854,-5.803358 17.02456,-11.901498 25.40713,-18.040144 15.68407,-11.302973 31.99808,-21.682884 48.68223,-31.448467 3.98766,-2.2167 7.92447,-4.5274546 11.96298,-6.6500992 17.75628,-9.3327192 36.43414,-16.7452808 54.68298,-25.0226158 9.26918,-4.364068 18.71459,-8.502816 27.31726,-14.117783 24.62689,-19.701509 52.48902,15.126169 27.86213,34.8276785 z"
       inkscape:connector-curvature="0" />
  </g>
</svg>
