<svg fill="none" xmlns="http://www.w3.org/2000/svg">
					<path d="M2182 712.5C2078.81 757.041 1419.91 1063.12 1319.04 1097.77C1242.23 1124.14 1165.34 1150.5 1087.35 1173.14C1007.27 1196.38 895.76 1226.88 806.311 1226C735.313 1225.3 681.665 1183.43 684.38 1111.59C688.579 1000.48 762.3 895.05 829.404 811.815C970.858 636.356 1157.13 486.921 1258.46 281.599C1290.87 215.922 1302.77 151.082 1259.71 87.2434C1214.67 20.4579 1137.97 -25.6664 1057.55 -31.3225C874.961 -44.1645 692.314 57.3169 563.441 177.762C485.684 250.435 418.022 333.033 340.741 406.196C256.012 486.411 161.587 545.661 56.6487 595.769C-9.55536 627.381 -82.9352 651.383 -143.422 693.679C-181.588 720.367 -211.601 757.894 -198.643 806.376C-190.223 837.882 -171.517 864.752 -151.775 890.119C-147.909 895.087 -144.458 902.331 -139.048 904.354" stroke="#ffb600" stroke-width="160" stroke-linecap="round" stroke-linejoin="round"></path>
				</svg>
