<?xml version="1.0" encoding="UTF-8" standalone="no"?>
<!-- Created with Inkscape (http://www.inkscape.org/) -->

<svg
   xmlns:dc="http://purl.org/dc/elements/1.1/"
   xmlns:cc="http://creativecommons.org/ns#"
   xmlns:rdf="http://www.w3.org/1999/02/22-rdf-syntax-ns#"
   xmlns:svg="http://www.w3.org/2000/svg"
   xmlns="http://www.w3.org/2000/svg"
   xmlns:sodipodi="http://sodipodi.sourceforge.net/DTD/sodipodi-0.dtd"
   xmlns:inkscape="http://www.inkscape.org/namespaces/inkscape"
   version="1.1"
   id="svg886"
   width="4000"
   height="4000"
   viewBox="0 0 4000 4000"
   sodipodi:docname="Label_logo.svg"
   enable-background="new"
   inkscape:version="0.92.4 (fd57863, 2020-04-02)">
  <metadata
     id="metadata892">
    <rdf:RDF>
      <cc:Work
         rdf:about="">
        <dc:format>image/svg+xml</dc:format>
        <dc:type
           rdf:resource="http://purl.org/dc/dcmitype/StillImage" />
        <dc:title></dc:title>
      </cc:Work>
    </rdf:RDF>
  </metadata>
  <defs
     id="defs890" />
  <sodipodi:namedview
     pagecolor="#ffffff"
     bordercolor="#666666"
     borderopacity="1"
     objecttolerance="10"
     gridtolerance="10"
     guidetolerance="10"
     inkscape:pageopacity="0"
     inkscape:pageshadow="2"
     inkscape:window-width="1920"
     inkscape:window-height="1016"
     id="namedview888"
     showgrid="false"
     inkscape:object-paths="true"
     inkscape:pagecheckerboard="true"
     inkscape:snap-global="false"
     showborder="false"
     inkscape:zoom="0.5"
     inkscape:cx="6021.3168"
     inkscape:cy="561.3651"
     inkscape:window-x="0"
     inkscape:window-y="27"
     inkscape:window-maximized="1"
     inkscape:current-layer="g4812" />
  <g
     id="g896"
     style="display:inline;opacity:0.98999999">
    <path
       style="display:inline;fill:#000000;stroke-width:0.04711157;stroke-miterlimit:4;stroke-dasharray:none"
       d="m 6523.1445,3137.2697 c -137.9066,132.0427 -68.9533,66.0219 0,0 z"
       id="path4669"
       inkscape:connector-curvature="0"
       sodipodi:nodetypes="cc" />
    <path
       style="display:inline;fill:#000000;stroke-width:0.04711157;stroke-miterlimit:4;stroke-dasharray:none"
       d="m 6387.1664,3299.0573 c -3.1179,-0.228 -5.5898,-1.414 -6.0356,-2.8915 -0.057,-0.1659 -0.089,-0.3825 -0.089,-0.4798 v -0.1783 l 1.136,0.039 1.1349,0.039 0.051,0.2587 c 0.1785,1.054 1.3559,1.7686 3.3882,2.0575 0.8382,0.1197 2.5564,0.071 3.2709,-0.068 1.4741,-0.3209 2.3131,-1.084 2.2273,-2.0252 -0.072,-0.7973 -0.5641,-1.2836 -1.69,-1.6765 -0.6028,-0.2105 -1.6921,-0.4941 -2.5316,-0.6593 -1.9656,-0.3855 -3.5191,-0.8504 -4.6119,-1.3816 -0.5999,-0.2918 -0.7867,-0.418 -1.1359,-0.7738 -0.3645,-0.3698 -0.4337,-0.4814 -0.5519,-0.8696 -0.3285,-1.0825 0.146,-2.0836 1.345,-2.8329 1.1611,-0.7256 2.759,-1.0881 4.8113,-1.0895 2.2848,-0.036 3.7524,0.3375 4.978,1.1526 0.9208,0.6133 1.5275,1.4015 1.6226,2.1096 l 0.043,0.2926 -1.1426,-0.038 -1.1444,-0.038 -0.056,-0.2672 c -0.1445,-0.8428 -0.9409,-1.5526 -2.1085,-1.8812 -1.5105,-0.4238 -4.1508,-0.253 -5.1111,0.3316 -0.3455,0.2075 -0.7461,0.6038 -0.8907,0.8783 -0.2008,0.3823 -0.1868,0.9168 0.042,1.2924 0.4457,0.7595 1.5331,1.1932 4.5014,1.7965 3.4635,0.7026 5.1058,1.4635 5.7234,2.6425 0.1858,0.3579 0.1978,0.4189 0.1978,1.0344 -0.01,0.5671 -0.037,0.6951 -0.1529,0.9671 -0.355,0.7268 -1.3358,1.4201 -2.5436,1.7996 -1.2373,0.3875 -3.1571,0.5792 -4.6706,0.4682 z"
       id="path4667"
       inkscape:connector-curvature="0"
       sodipodi:nodetypes="ccscccccsccccccsccccccsscccccccsc" />
    <path
       style="display:inline;fill:#000000;stroke-width:0.04711157;stroke-miterlimit:4;stroke-dasharray:none"
       d="m 6404.7378,3299.0593 c -1.4565,-0.096 -2.6222,-0.3866 -3.7501,-0.9465 -1.0836,-0.5323 -1.7066,-1.251 -1.9644,-2.2573 -0.077,-0.3165 -0.098,-1.0273 -0.098,-4.8147 v -4.4435 h 1.122 1.1239 l 0.031,4.1605 c 0.017,2.2874 0.039,4.3641 0.066,4.6122 0.145,1.1342 0.8418,1.8511 2.2134,2.2776 1.1137,0.3504 2.9777,0.3841 4.159,0.07 1.2015,-0.3111 1.8794,-0.7825 2.2716,-1.5764 l 0.2353,-0.4756 0.041,-4.5211 0.043,-4.5218 h 1.1212 1.1229 v 4.5196 4.5172 l -0.1454,0.4039 c -0.3296,0.9092 -0.9167,1.5114 -1.9744,2.0282 -1.3445,0.6549 -2.3397,0.8787 -4.3943,0.9892 -0.2238,0.039 -0.7487,-0.012 -1.169,-0.04 z"
       id="path4665"
       inkscape:connector-curvature="0"
       sodipodi:nodetypes="cccscccccscccccccccccscc" />
    <path
       style="display:inline;fill:#000000;stroke-width:0.04711157;stroke-miterlimit:4;stroke-dasharray:none"
       d="m 6476.0374,3299.0545 c -1.3156,-0.091 -2.7246,-0.407 -3.7093,-0.8317 -1.4019,-0.6026 -2.2636,-1.4742 -2.3909,-2.4167 l -0.042,-0.2962 h 1.1615 1.1615 v 0.1447 c 0,0.586 0.5172,1.2362 1.2702,1.5992 1.0636,0.5118 2.2738,0.7191 3.9038,0.6675 1.6206,-0.061 2.5577,-0.3227 3.2228,-0.9344 0.3483,-0.319 0.5137,-0.6605 0.5146,-1.0642 0.039,-0.9827 -0.6473,-1.5703 -2.243,-2.0207 -0.7021,-0.2004 -0.853,-0.2359 -2.8351,-0.6701 -0.7195,-0.1583 -1.7283,-0.4253 -2.2433,-0.5946 -2.3721,-0.7795 -3.2842,-1.5799 -3.2888,-2.8926 -0.037,-0.6746 0.181,-1.0804 0.7389,-1.6313 0.8054,-0.7978 2.1126,-1.325 3.8512,-1.5539 1.4312,-0.1886 3.7647,-0.064 4.8999,0.2683 1.3403,0.3882 2.6048,1.2675 3.0811,2.1412 0.1844,0.3373 0.364,0.9559 0.2988,1.0238 -0.039,0.036 -0.5333,0.038 -1.1418,0.038 h -1.1063 l -0.07,-0.3266 c -0.1441,-0.6667 -0.6278,-1.2184 -1.3936,-1.577 -0.6209,-0.2937 -1.0569,-0.396 -2.0508,-0.4776 -1.4156,-0.1182 -2.8587,0.067 -3.6524,0.4767 -1.1322,0.5782 -1.506,1.7706 -0.7832,2.4889 0.6479,0.6407 1.639,0.994 4.3179,1.5329 2.817,0.5685 4.475,1.208 5.2747,2.0305 0.6955,0.7142 0.8858,1.8271 0.4548,2.6691 -0.3073,0.601 -1.0603,1.1872 -2.0103,1.5636 -1.3104,0.5181 -3.3623,0.7747 -5.1928,0.6479 z"
       id="path4663"
       inkscape:connector-curvature="0"
       sodipodi:nodetypes="ccccccsssccccccssscsscccccsscccc" />
    <path
       style="display:inline;fill:#000000;stroke-width:0.04711157;stroke-miterlimit:4;stroke-dasharray:none"
       d="m 6417.9051,3298.8641 c -0.036,-0.056 -0.036,-2.8175 -0.036,-6.1588 l 0.036,-6.0762 2.9298,-0.038 c 3.0595,-0.041 4.7981,0.052 5.7179,0.2076 2.344,0.4121 3.434,1.2921 3.523,2.8388 0.04,0.5301 0.04,0.5741 -0.167,0.9588 -0.3256,0.6623 -1.1018,1.2326 -2.2061,1.6238 -0.4384,0.1543 -0.3727,0.2695 0.2497,0.4338 1.1398,0.3005 2.0304,0.9427 2.4188,1.7403 0.2329,0.4763 0.2868,1.2605 0.1279,1.8101 -0.3816,1.305 -1.7633,2.1873 -4.0345,2.5664 -0.5488,0.09 -1.2215,0.1107 -4.5873,0.1318 -3.2183,0.038 -3.9472,0.038 -3.9722,-0.063 z"
       id="path4661"
       inkscape:connector-curvature="0"
       sodipodi:nodetypes="csccsccccsscsc" />
    <path
       style="display:inline;fill:#000000;stroke-width:0.04711157;stroke-miterlimit:4;stroke-dasharray:none"
       d="m 6435.8858,3292.7676 v -6.171 l 5.8437,0.038 5.8428,0.039 v 0.5609 0.559 l -4.6749,0.042 -4.6743,0.043 -0.041,2.0255 c -0.037,1.8497 -0.037,2.0328 0.091,2.1036 0.075,0.065 1.0054,0.07 4.1155,0.07 h 4.0116 l -0.039,0.5445 -0.038,0.5454 -4.0816,0.043 c -2.2441,0.037 -4.0899,0.039 -4.0996,0.054 -0.038,0.039 -0.038,1.0319 0,2.2733 l 0.038,2.2593 4.7362,0.041 4.7356,0.042 v 0.5617 0.5604 l -5.9046,0.038 -5.9046,0.037 z"
       id="path4655"
       inkscape:connector-curvature="0"
       sodipodi:nodetypes="ccccccccccscccccccccccccc" />
    <path
       style="display:inline;fill:#000000;stroke-width:0.04711157;stroke-miterlimit:4;stroke-dasharray:none"
       d="m 6450.6558,3298.8761 c 0,-0.087 6.9873,-12.1732 7.072,-12.2305 0.041,-0.039 0.503,-0.056 1.0431,-0.056 l 0.9763,-0.015 0.1194,0.1715 c 0.2341,0.3353 6.9951,12.0314 6.9951,12.0996 0,0.058 -0.3436,0.07 -1.1219,0.07 h -1.1207 l -0.1453,-0.2334 c -0.075,-0.1279 -0.4894,-0.8541 -0.9061,-1.6132 -0.5662,-1.0261 -0.7963,-1.3898 -0.8984,-1.4172 -0.07,-0.038 -1.8658,-0.043 -3.9774,-0.043 -2.9738,-0.011 -3.8564,0.039 -3.9401,0.071 -0.06,0.048 -0.457,0.7229 -0.8907,1.5131 -0.4303,0.7875 -0.8242,1.496 -0.8747,1.5713 -0.084,0.1385 -0.1156,0.1416 -1.2079,0.1416 -0.7198,0 -1.1227,-0.041 -1.1227,-0.067 z"
       id="path4653"
       inkscape:connector-curvature="0"
       sodipodi:nodetypes="sccccssccccccccsss" />
    <path
       style="display:inline;fill:#000000;stroke-width:0.04711157;stroke-miterlimit:4;stroke-dasharray:none"
       d="m 6492.7253,3293.4301 c 0,-4.5285 -0.037,-5.5207 -0.075,-5.5779 -0.066,-0.056 -0.9848,-0.069 -3.0413,-0.082 l -2.9528,-0.038 v -0.56 -0.5604 h 7.1979 7.1996 l 0.036,0.5752 0.037,0.5761 h -2.9811 c -2.2356,0 -3.001,0.041 -3.0577,0.071 -0.061,0.063 -0.068,1.3807 -0.068,5.5787 v 5.5022 h -1.1221 -1.122 z"
       id="path4649"
       inkscape:connector-curvature="0"
       sodipodi:nodetypes="scscccccccssscccs" />
    <path
       style="display:inline;fill:#000000;stroke-width:0.04711157;stroke-miterlimit:4;stroke-dasharray:none"
       d="m 6381.1842,3283.6419 c -1.178,-0.2871 -2.1079,-1.1979 -2.4911,-2.4379 -0.1096,-0.3543 -0.1139,-0.9045 -0.1139,-12.2756 0,-12.79 -0.039,-12.1636 0.3108,-12.9015 0.4494,-1.0124 1.5037,-1.7987 2.6357,-1.9618 0.2661,-0.041 14.4617,-0.065 39.125,-0.065 26.5079,-0.014 38.8692,-0.038 39.2325,-0.066 3.4265,-0.4221 6.4059,-1.9732 8.7916,-4.5782 1.8975,-2.0717 2.9827,-4.3293 3.4017,-7.0739 0.1475,-0.971 0.1478,-2.9938 0.027,-3.9887 -0.4315,-2.9253 -1.6881,-5.3738 -3.8805,-7.5675 -2.2736,-2.2731 -4.8722,-3.582 -8.0722,-4.0662 -0.6574,-0.098 -2.23,-0.1101 -20.5925,-0.152 -10.9352,-0.038 -20.0357,-0.069 -20.2246,-0.079 -0.1882,-0.039 -0.8895,-0.096 -1.5579,-0.1661 -7.3909,-0.7765 -14.1678,-3.3114 -20.189,-7.5543 -4.0988,-2.8865 -8.0524,-6.7605 -11.0126,-10.7932 -4.213,-5.7394 -6.7803,-12.2181 -7.6302,-19.2593 -0.4288,-3.5408 -0.426,-7.6352 0.038,-11.1869 1.1172,-9.1603 5.1508,-17.3614 11.9234,-24.2351 3.3495,-3.4016 6.5784,-5.9125 10.3732,-8.0707 4.7649,-2.7097 10.2738,-4.4983 15.9685,-5.1818 2.7017,-0.3245 -0.5534,-0.3022 48.5973,-0.3248 l 45.4515,-0.036 -0.04,2.3856 -0.038,2.3851 -15.236,0.041 -15.2396,0.04 v 3.6144 3.6144 l 13.0271,0.04 13.0245,0.04 0.039,2.2899 0.038,2.2912 h -12.9398 c -8.8,0 -12.9749,0.039 -13.0568,0.066 -0.1191,0.064 -0.121,0.1733 -0.121,4.0382 0,3.0084 0.037,3.9927 0.072,4.0479 11.0131,0.1296 17.2679,0.072 30.5904,0.072 v 2.3573 2.3586 c -23.0183,0.042 -46.0348,0.075 -69.0506,0.079 -22.1763,0 -21.1169,-0.039 -22.6788,0.3365 -3.4903,0.7896 -6.7942,3.1418 -8.7918,6.2595 -1.0121,1.5815 -1.7182,3.5918 -1.9394,5.5257 -0.094,0.8321 -0.069,2.5968 0.043,3.4406 0.3954,3.0479 1.7298,5.6224 4.0939,7.9071 2.2388,2.1648 4.599,3.3388 7.7771,3.8701 0.6103,0.1026 1.9644,0.1122 20.3792,0.1484 9.5221,0.2165 20.1467,-0.7786 28.8868,1.531 7.1873,1.922 13.564,5.6369 19.3126,11.2443 6.2197,6.0698 10.2699,13.1338 12.0045,20.9402 0.74,3.3281 1.0253,6.0258 1.0261,9.7212 0.019,3.6754 -0.2855,6.3911 -1.0261,9.7225 -1.9456,8.756 -6.8859,16.692 -14.3952,23.1275 -6.7343,5.7679 -14.3703,9.1665 -22.9662,10.218 -2.9649,0.3628 0.285,0.3353 -42.9412,0.35 -31.8597,0.037 -39.6401,-0.034 -39.9025,-0.069 z"
       id="path898"
       inkscape:connector-curvature="0"
       sodipodi:nodetypes="ccsccccsccscsccsscssssscccccccccccscscccccscccccccssccscsc" />
    <g
       id="g4812"
       style="display:inline">
      <path
         style="display:inline;fill:#6f6f6f;stroke-width:1.33333337"
         d="m 5740.8243,3381.9927 c -0.3391,-0.3391 -1.9917,-0.8814 -3.6724,-1.2051 -4.1224,-0.7939 -9.1287,-5.6845 -11.4215,-11.1574 -2.1485,-5.1287 -2.6697,-39.5307 -0.6472,-42.7259 0.6993,-1.1048 0.7045,-3.18 0.012,-5 -1.0417,-2.7401 -0.7891,-3.1113 2.1175,-3.1113 1.8152,0 3.3003,0.6 3.3003,1.3334 0,0.7333 1.1358,1.3333 2.524,1.3333 1.3883,0 2.8883,0.9491 3.3334,2.1091 0.4451,1.1599 0.8093,10.8192 0.8093,21.465 v 19.356 l 3.9196,3.6615 c 3.0984,2.8943 3.8667,4.6781 3.6667,8.5134 -0.2253,4.3209 -2.2548,7.1154 -3.9422,5.428 z m 8.3559,-5.2134 c 0,-4.6457 0.7856,-6.5667 4,-9.7811 l 4,-4 v -20.2274 c 0,-19.1061 0.1478,-20.2661 2.6667,-20.9248 1.4666,-0.3835 2.6666,-1.2206 2.6666,-1.8602 0,-0.6396 1.4168,-1.0456 3.1485,-0.9023 2.8762,0.238 3.1881,0.9573 3.6067,8.3184 1.2897,22.6762 0.5855,38.6942 -1.9234,43.7507 -2.9538,5.9533 -7.9115,9.7918 -13.857,10.7288 -4.2972,0.6773 -4.3081,0.6644 -4.3081,-5.1021 z m 30.4057,4.5152 c -0.8168,-0.5025 -1.0233,-3.6707 -0.5214,-8 0.9238,-7.9684 0.9246,-7.1046 -0.027,-31.0921 -0.8939,-22.5449 -0.8107,-22.8272 6.8464,-23.2236 l 6.1126,-0.3164 -0.6026,17.732 c -0.6834,20.1122 -0.6686,17.8375 -0.2193,33.7542 l 0.3394,12.0223 -5.2881,-0.022 c -2.9084,-0.012 -5.8966,-0.3966 -6.6404,-0.8541 z m 15.7533,-1.6758 c -1.3823,-5.5076 0.2437,-7.4766 6.317,-7.6501 11.3497,-0.3241 13.3455,-1.324 13.8947,-6.9608 0.729,-7.4829 -2.2656,-10.2148 -11.1971,-10.2148 -5.7589,0 -7.3511,-0.5069 -8.5339,-2.717 -0.7997,-1.4944 -1.0804,-3.8944 -0.6237,-5.3333 0.6869,-2.1642 2.0465,-2.6163 7.8672,-2.6163 7.9371,0 11.4501,-2.5452 11.4501,-8.2957 0,-3.9129 -2.0838,-5.0377 -9.3333,-5.0377 -7.9776,0 -9.3333,-0.9786 -9.3333,-6.7376 v -5.1189 l 9.8943,0.506 c 11.8754,0.6074 17.435,3.187 20.4372,9.4826 1.7767,3.7259 1.9051,5.1386 0.6303,6.9398 -0.8803,1.2438 -2.8601,4.592 -4.3996,7.4405 l -2.7991,5.1789 2.7851,3.7671 c 1.5318,2.0718 2.7851,4.6913 2.7851,5.821 0,1.1297 0.75,1.904 1.6667,1.7206 0.9937,-0.1987 1.8335,1.3917 2.0799,3.9388 0.3053,3.1567 -0.3039,4.72 -2.3334,5.9874 -1.5106,0.9434 -2.7465,3.0499 -2.7465,4.681 0,3.6368 -3.4206,5.5988 -10.9454,6.2779 -3.1467,0.284 -5.7213,0.6222 -5.7213,0.7516 0,0.1295 -2.479,0.513 -5.5088,0.8524 -4.9742,0.5571 -5.5887,0.2986 -6.3322,-2.6634 z m 27.1743,-12.9044 c 0,-1.5099 -0.6,-2.3745 -1.3333,-1.9213 -0.7333,0.4533 -1.3333,1.6887 -1.3333,2.7454 0,1.0567 0.6,1.9213 1.3333,1.9213 0.7333,0 1.3333,-1.2354 1.3333,-2.7454 z m 32.6667,14.7454 c -0.4532,-0.7333 -0.1886,-1.3333 0.588,-1.3333 0.7766,0 1.412,0.6 1.412,1.3333 0,0.7333 -0.2646,1.3333 -0.588,1.3333 -0.3234,0 -0.9588,-0.6 -1.412,-1.3333 z m 8.1078,0.1744 c -0.4729,-0.7652 -1.6407,-1.0917 -2.5949,-0.7255 -0.9543,0.3662 -1.7917,-0.11 -1.8608,-1.0582 -0.069,-0.9482 -0.539,-3.074 -1.0444,-4.724 -0.9086,-2.9669 -0.777,-3 11.9035,-3 h 12.8221 v 4 c 0,2.2 -9e-4,4.45 0,5 0,0.55 -2.6759,1.0518 -5.9438,1.1151 -3.268,0.063 -5.6317,-0.3867 -5.2526,-1 1.0198,-1.6501 -4.0285,-1.3548 -5.7178,0.3344 -0.9978,0.9978 -1.7174,1.0159 -2.3093,0.058 z m 28.5589,-4.3609 c 0,-4.6654 13.7712,-49.1577 17.1959,-55.5567 1.2797,-2.3912 2.7401,-2.9235 8.0211,-2.9235 3.5676,0 7.0806,0.7521 7.8514,1.6809 1.5548,1.8734 21.5982,58.3592 21.5982,60.8674 0,1.081 -2.234,1.4619 -6.9684,1.1881 -6.8889,-0.3984 -6.9926,-0.4689 -9.0949,-6.177 -2.6148,-7.0997 -4.2297,-8.1797 -12.27,-8.2056 -5.8114,-0.019 -6.3333,-0.2873 -6.3333,-3.2585 0,-4.3585 3.3456,-7.4286 8.0952,-7.4286 2.1476,0 3.9048,-0.6569 3.9048,-1.4597 0,-3.7306 -5.7835,-19.9569 -6.7638,-18.9766 -0.6088,0.6088 -3.2307,8.4856 -5.8264,17.5039 -2.5957,9.0183 -5.3248,17.5279 -6.0647,18.9103 -0.7398,1.3824 -1.3451,3.8171 -1.3451,5.4104 0,1.9376 -0.6192,2.6594 -1.8697,2.1796 -1.0283,-0.3946 -2.2781,-0.3088 -2.7773,0.1906 -0.4992,0.4995 -2.3579,0.936 -4.1303,0.9701 -2.8436,0.055 -3.2227,-0.5236 -3.2227,-4.9151 z m 280.6666,4.1865 c -0.4532,-0.7333 -0.1886,-1.3333 0.588,-1.3333 0.7766,0 1.412,0.6 1.412,1.3333 0,0.7333 -0.2646,1.3333 -0.5879,1.3333 -0.3234,0 -0.9588,-0.6 -1.4121,-1.3333 z m 8.1078,0.1744 c -0.4729,-0.7652 -1.6406,-1.0917 -2.5949,-0.7255 -0.9543,0.3662 -1.7916,-0.11 -1.8607,-1.0582 -0.069,-0.9482 -0.5391,-3.074 -1.0444,-4.724 -0.9086,-2.9669 -0.777,-3 11.9034,-3 h 12.8222 v 4 c 0,2.2 -0.01,4.45 -0.012,5 -0.01,0.55 -2.4067,1.0212 -5.3334,1.0471 -2.9266,0.026 -5.3211,-0.4241 -5.3211,-1 0,-1.5603 -4.5818,-1.2653 -6.2495,0.4024 -0.9978,0.9978 -1.7175,1.0159 -2.3094,0.058 z m 162.8922,0.084 c -2.1429,-0.4166 -2.3333,-3.0027 -2.3333,-31.6892 v -31.2356 h 6.6667 6.6666 v 31.1875 31.1875 l -4.3333,0.5017 c -2.3833,0.2759 -5.3833,0.2976 -6.6667,0.048 z m 37.6667,-0.2112 c 0,-0.7591 -0.6866,-1.2302 -1.5258,-1.0469 -0.8677,0.1896 -2.5621,-3.6775 -3.9285,-8.9656 -2.7038,-10.4645 -4.8361,-12.7011 -12.1085,-12.7011 -4.2849,0 -5.1809,-0.5093 -5.894,-3.3506 -1.2275,-4.8907 1.4876,-7.316 8.1899,-7.316 4.6129,0 6.2826,-0.6899 8.5035,-3.5132 5.7161,-7.2669 2.2472,-13.0776 -8.6175,-14.4351 -8.0275,-1.003 -9.4691,-2.4836 -8.0239,-8.2417 0.8771,-3.4947 0.9463,-3.5125 10.7572,-2.7705 5.8745,0.4443 11.5075,1.7115 13.9061,3.1284 4.2658,2.5198 8.0748,9.0027 8.0748,13.7431 0,4.2216 -3.5825,12.0125 -5.9398,12.917 -2.587,0.9928 -2.6055,3.1549 -0.068,8.0196 1.0955,2.1005 1.9955,5.4336 2,7.407 0,1.9734 0.6082,3.9588 1.3416,4.412 0.7333,0.4533 1.3333,2.3281 1.3333,4.1664 0,1.8382 0.6016,4.4664 1.3369,5.8404 0.8938,1.6699 0.8938,2.772 0,3.3243 -0.7353,0.4545 -1.3461,0.041 -1.3573,-0.919 -0.015,-1.2683 -0.3737,-1.1987 -1.3129,0.2546 -0.9088,1.4062 -1.2986,1.4912 -1.313,0.2864 -0.015,-1.2999 -0.6642,-1.369 -2.687,-0.2864 -1.808,0.9676 -2.6667,0.9827 -2.6667,0.047 z m 17.1428,-2.7136 c -0.2205,-2.5666 -0.4179,-17.0504 -0.4386,-32.1861 l -0.038,-27.5194 6,0.1861 6,0.1861 0.2726,30.8562 0.2727,30.8561 -3.606,0.6923 c -1.9833,0.3808 -4.2977,0.1205 -5.143,-0.5785 -1.0109,-0.8357 -1.7736,-0.6812 -2.2281,0.4516 -0.3801,0.9473 -0.8715,-0.3777 -1.0921,-2.9444 z m 16.1905,0.422 c 0,-4.8662 2.1504,-7.0886 6.859,-7.0886 2.0125,0 5.3275,-1.4352 7.3668,-3.1894 3.3376,-2.8708 3.7592,-4.2052 4.2215,-13.3615 1.0322,-20.4404 -0.8786,-24.4383 -12.4473,-26.0428 -5.0854,-0.7053 -5.3531,-0.9808 -5.7582,-5.9254 l -0.4249,-5.1857 9.1022,0.6513 c 10.8913,0.7792 16.8762,3.5868 20.0584,9.4094 1.9249,3.5223 2.3559,7.6221 2.3559,22.4145 0,17.8467 -0.054,18.1745 -3.7977,23.0828 -4.4991,5.8986 -6.7837,6.9018 -18.6013,8.1673 l -8.9344,0.9568 z m -739.2512,-1.0535 c -5.7072,-3.5182 -8.6275,-7.6691 -8.7015,-12.3685 -0.041,-2.6161 0.6312,-3 5.2553,-3 4.1252,0 5.768,0.7102 7.3984,3.1985 1.1526,1.7592 3.8664,3.932 6.0307,4.8285 3.189,1.3209 3.935,2.4322 3.935,5.8623 0,3.8365 -0.4053,4.255 -4.3333,4.4743 -2.6103,0.1457 -6.4214,-1.0452 -9.5846,-2.9951 z m 18.991,-0.488 c 1.1151,-6.0148 7.3025,-7.622 11.4975,-2.9866 2.2134,2.4457 2.184,2.6319 -0.654,4.1507 -1.6341,0.8746 -4.8904,1.7686 -7.2362,1.9866 -3.9633,0.3684 -4.2184,0.1456 -3.6073,-3.1507 z m 152.2602,1.1664 c 0,-2.8385 -3.6474,-5.3853 -6.3333,-4.4222 -1.9448,0.6973 -1.9333,0.7742 -2.2757,-15.3196 -0.1895,-8.9107 0.231,-12.7714 1.5064,-13.8299 0.9731,-0.8076 1.8209,-0.9449 1.8839,-0.3051 0.063,0.6398 0.609,-0.4786 1.2132,-2.4854 1.2036,-3.9972 0.3777,-9.018 -1.4833,-9.018 -1.9891,0 -1.3075,-6.2227 1.1555,-10.5502 2.5324,-4.4493 6.9136,-5.5433 7.1413,-1.7831 1.2155,20.0779 0.9898,26.3468 -1.0287,28.5773 -1.8599,2.055 -1.8821,2.4669 -0.1689,3.1243 2.6433,1.0144 2.6977,28.6221 0.056,28.628 -0.9167,0 -1.6667,-1.1752 -1.6667,-2.6161 z m 117.0553,-0.8433 c -5.6044,-3.5957 -7.7219,-6.8267 -7.7219,-11.7826 0,-3.0972 0.5003,-3.421 5.2864,-3.421 3.8153,0 5.6609,0.6998 6.6322,2.5147 0.7402,1.383 3.4719,3.769 6.0705,5.3022 3.7873,2.2346 4.6681,3.5212 4.4399,6.4854 -0.2505,3.254 -0.8533,3.7203 -5.0235,3.8857 -2.9757,0.1181 -6.5787,-0.9924 -9.6836,-2.9844 z m 19.6896,-0.3354 c 0.1035,-2.3624 1.3637,-3.9304 4.2624,-5.3032 4.0254,-1.9064 5.6046,-4.792 5.6412,-10.3084 0.023,-3.4455 -8.0221,-7.2443 -15.4298,-7.2858 -6.5002,-0.037 -15.4969,-4.0137 -18.3753,-8.1232 -3.1706,-4.5266 -2.8478,-14.6348 0.6077,-19.0277 3.5536,-4.5177 9.2969,-7.4865 14.4827,-7.4865 3.6365,0 4.0662,0.4262 4.0662,4.033 0,3.0482 -0.7941,4.3349 -3.2522,5.2695 -7.9436,3.0201 -6.9754,10.9944 1.6073,13.2384 2.7381,0.7159 7.6783,1.9798 10.9783,2.8086 10.234,2.5703 14.891,8.1581 15.5434,18.6505 0.5112,8.2212 -0.9397,10.3402 -5.6202,8.2076 -3.9936,-1.8196 -5.9462,-1.0306 -3.501,1.4146 2.6922,2.6922 1.7558,4.7835 -2.7556,6.1544 -6.6555,2.0224 -8.4208,1.543 -8.2551,-2.2418 z m 45.9218,-8.2892 c 0,-6.6482 0.6416,-13.2865 1.4259,-14.7519 1.0251,-1.9155 1.0034,-3.1732 -0.077,-4.4754 -0.8267,-0.9961 -1.3183,-4.7078 -1.0925,-8.2481 0.4077,-6.3918 0.4457,-6.4398 5.413,-6.8509 4.3146,-0.357 5.1796,0.052 6.2919,2.978 0.7093,1.8656 0.9555,7.1519 0.5472,11.7473 -0.8116,9.1337 -0.8058,9.576 0.2963,22.6887 l 0.7565,9 h -6.7805 -6.7804 z m 69.3333,-19.2456 v -31.3334 h 6.6667 6.6667 v 31.3334 31.3333 h -6.6667 -6.6667 z m 34.6976,22.3194 c -2.0976,-10.5529 -4.8235,-13.6528 -12.0055,-13.6528 -4.5571,0 -5.4269,-0.4739 -6.1489,-3.3506 -1.2275,-4.8907 1.4876,-7.316 8.19,-7.316 4.6129,0 6.2826,-0.6899 8.5034,-3.5132 3.1999,-4.0679 3.3313,-5.2869 1.0551,-9.7854 -1.3418,-2.6518 -3.2335,-3.5669 -9.6471,-4.6667 l -7.9779,-1.3681 -0.1366,-5.177 -0.1366,-5.177 10.6679,0.7311 c 12.1947,0.8359 16.2113,2.99 20.0761,10.767 3.2752,6.5904 2.0191,13.3723 -3.4173,18.4506 -3.704,3.4601 -3.8894,4.0137 -2.0451,6.1052 1.1155,1.2651 2.4442,4.4001 2.9526,6.9668 0.9804,4.9484 3.0197,12.1428 4.7717,16.8333 0.995,2.6641 0.639,2.8334 -5.9591,2.8334 h -7.0173 z m 30.8853,6.0139 c 0.3592,-2.5833 -0.1847,-2.9982 -3.9162,-2.9871 -4.8293,0.014 -4.293,2.1043 -4.965,-19.3462 -0.2656,-8.4781 1.0517,-12.7219 3.4824,-11.2196 0.6685,0.4131 1.0816,0.2565 0.9181,-0.348 -0.1634,-0.6045 0.1599,-2.4419 0.7185,-4.0832 0.6747,-1.9824 0.2355,-4.3046 -1.3085,-6.9184 -2.2175,-3.7539 -2.2121,-4.1827 0.1177,-9.3493 1.7292,-3.8346 3.2583,-5.4149 5.2393,-5.4148 2.6452,0 2.8159,0.7746 3.1357,14.223 0.2689,11.3096 -0.084,14.6898 -1.7243,16.5019 -1.8441,2.0378 -1.847,2.3615 -0.027,3.0599 1.6751,0.6428 1.9803,3.2671 1.7243,14.8302 -0.2336,10.5505 -0.747,14.0494 -2.0615,14.0504 -1.0503,7e-4 -1.5836,-1.1988 -1.3334,-2.9988 z m 60.9509,0.3454 c -6.8589,-3.6252 -13.5771,-11.6435 -12.7155,-15.1762 0.3804,-1.5597 -0.1731,-4.0005 -1.23,-5.424 -3.0189,-4.0662 -2.3724,-15.0544 1.3572,-23.065 5.8076,-12.4743 23.3793,-20.1961 24.4694,-10.7531 0.3369,2.9185 -0.5699,4.2455 -4.8253,7.0616 -6.3844,4.225 -10.1304,11.9232 -10.0002,20.5512 0.1103,7.3097 2.5587,12.5777 8.3224,17.9065 4.4971,4.1576 4.8787,5.7339 2.2322,9.2203 -2.1235,2.7973 -1.6739,2.8162 -7.6102,-0.3213 z m -6.5338,-27.2667 c 0,-0.3234 -0.6,-0.9588 -1.3333,-1.412 -0.7333,-0.4533 -1.3333,-0.1887 -1.3333,0.5879 0,0.7767 0.6,1.4121 1.3333,1.4121 0.7333,0 1.3333,-0.2646 1.3333,-0.588 z m 23.2299,25.3188 c 0.8702,-2.5314 4.374,-7.0599 7.7863,-10.0635 6.1356,-5.4008 6.2487,-5.4379 10.2606,-3.3633 5.1623,2.6696 5.1072,4.6662 -0.2768,10.03 -4.8279,4.81 -11.2604,7.9993 -16.1334,7.9993 -3.087,0 -3.1541,-0.1887 -1.6367,-4.6025 z m 48.6372,1.9479 c -6.5856,-3.4808 -13.5985,-11.6791 -12.7537,-14.9096 0.3672,-1.4042 -0.1794,-4.1767 -1.2146,-6.1611 -5.2088,-9.9842 0.3183,-26.8395 11.0336,-33.6484 8.1722,-5.1929 14.1958,-5.0706 14.8158,0.3008 0.3369,2.9185 -0.5698,4.2455 -4.8252,7.0616 -6.3844,4.225 -10.1304,11.9232 -10.0003,20.5512 0.1103,7.3097 2.5587,12.5777 8.3225,17.9065 4.497,4.1576 4.8786,5.7339 2.2321,9.2203 -2.1234,2.7973 -1.6739,2.8162 -7.6102,-0.3213 z m -6.5337,-27.2667 c 0,-0.3234 -0.6,-0.9588 -1.3334,-1.412 -0.7333,-0.4533 -1.3333,-0.1887 -1.3333,0.5879 0,0.7767 0.6,1.4121 1.3333,1.4121 0.7334,0 1.3334,-0.2646 1.3334,-0.588 z m 23.1632,25.5125 c 0.8336,-2.4249 3.9908,-6.7749 7.0159,-9.6667 4.0904,-3.9102 5.7419,-6.7085 6.4432,-10.9175 0.5187,-3.1128 1.4876,-5.9963 2.1532,-6.4076 0.6656,-0.4114 1.8868,-2.0645 2.7138,-3.6737 1.2398,-2.4121 1.1942,-2.6331 -0.2595,-1.259 -2.7869,2.6343 -3.7722,2.0314 -6.0717,-3.7158 -1.4176,-3.5428 -4.1744,-6.7727 -8.0665,-9.4505 -4.8404,-3.3303 -5.8383,-4.7119 -5.5022,-7.6176 0.3669,-3.1723 0.9419,-3.5333 5.4107,-3.3974 5.8107,0.1768 13.9956,5.3162 17.2279,10.8176 1.1947,2.0334 2.8289,9.097 3.6316,15.697 1.4124,11.613 1.3504,12.2229 -1.9209,18.9102 -3.9747,8.1252 -13.2103,15.0898 -20.0102,15.0898 -4.2615,0 -4.2741,-0.02 -2.7653,-4.4088 z m 155.675,0.3798 c -5.0348,-3.6472 -8.3443,-9.6178 -7.1898,-12.971 0.3211,-0.9327 2.763,-1.6667 5.5453,-1.6667 3.9778,0 5.5625,0.7995 7.9288,4 1.6265,2.2 3.8039,4 4.8387,4 2.4182,0 3.5882,1.9511 3.9038,6.5099 0.2325,3.3586 -0.1461,3.6546 -4.8054,3.7571 -3.5492,0.078 -6.5979,-1.0044 -10.2214,-3.6293 z m 20.2344,0.1375 c -0.2155,-2.9966 0.5081,-3.9033 4.1723,-5.2283 4.2168,-1.5248 6.0884,-5.0688 6.0884,-11.5285 0,-2.1773 -13.678,-7.3606 -17.0777,-6.4715 -3.9083,1.022 -14.323,-4.0593 -17.1432,-8.3641 -3.0281,-4.6223 -3.0096,-13.3987 0.038,-18.0501 2.6754,-4.0832 11.2047,-8.2134 15.6607,-7.5835 4.123,0.5829 5.3766,7.3217 1.6112,8.6611 -3.8905,1.3839 -7.0892,4.6773 -7.0892,7.299 0,3.5011 4.6436,6.0229 15.6949,8.5236 8.484,1.9197 10.217,2.8434 13.8754,7.3959 7.3388,9.132 6.2442,24.4754 -1.4052,19.6983 -3.3376,-2.0844 -5.1741,-0.6161 -2.803,2.241 2.4099,2.9037 -0.864,6.0611 -6.8601,6.6159 -4.0611,0.3757 -4.5275,0.061 -4.7627,-3.2088 z m -776.0726,-5.9217 c -2.4147,-1.1959 -3,-2.6029 -3,-7.2115 0,-4.289 -0.5855,-5.9069 -2.3334,-6.4478 -1.2833,-0.3972 -3.4861,-1.3477 -4.8952,-2.1122 -1.409,-0.7645 -5.009,-1.3489 -8,-1.2986 -7.3148,0.123 -16.3211,-4.3783 -18.9563,-9.4742 -2.6484,-5.1215 -1.7783,-14.6493 1.6938,-18.5473 5.3251,-5.9782 16.994,-8.4788 18.4314,-3.9497 1.1851,3.7337 -0.2443,6.133 -4.6426,7.7932 -2.977,1.1236 -3.9644,2.3477 -3.9644,4.9147 0,4.3425 3.8831,6.9272 13.3507,8.8868 11.2791,2.3345 20.9799,10.182 19.8298,16.0416 -0.2035,1.0367 0.081,3.2122 0.632,4.8345 1.1345,3.34 -1.0655,8.4687 -3.5261,8.22 -0.8908,-0.09 -2.9697,-0.8323 -4.6197,-1.6495 z m 151.396,-17.8439 c -3.008,-0.6813 -4.371,-5.2965 -2.3009,-7.7908 1.2659,-1.5254 4.1551,-1.8975 12.4435,-1.6027 l 10.7947,0.3839 v 4.6438 4.6439 l -9.3333,0.118 c -5.1334,0.065 -10.3552,-0.1133 -11.604,-0.3961 z m 316.3411,-1.2436 c -3.2854,-2.3012 -3.4135,-3.5658 -0.6419,-6.3374 1.5298,-1.5298 4.776,-2.0952 12.0286,-2.0952 9.3301,0 10.0266,0.2046 11.4686,3.3695 1.1746,2.578 1.1558,3.7489 -0.08,4.9851 -2.3838,2.3838 -19.3997,2.4421 -22.7749,0.078 z m 77.9304,-13.7631 c -0.465,-1.4651 -3.5402,-4.5178 -6.8337,-6.7839 -4.9115,-3.3792 -5.9145,-4.7583 -5.5778,-7.6695 0.367,-3.1723 0.942,-3.5333 5.4108,-3.3974 6.0168,0.1831 14.0167,5.3618 17.567,11.372 2.501,4.2338 2.4989,4.2613 -0.509,6.6969 -4.0465,3.2767 -8.982,3.1696 -10.0573,-0.2181 z m -553.6675,-5.977 c -8.7507,-9.0164 -7.0271,-14.7206 3.4955,-11.568 4.956,1.4849 9.6472,6.3569 11.3811,11.8201 0.6738,2.1231 0.2148,3.2694 -1.7249,4.3075 -4.538,2.4287 -7.2982,1.4717 -13.1517,-4.5596 z m 292.224,2.6611 c -1.2962,-1.9782 -3.7519,-4.1273 -5.457,-4.7756 -2.4356,-0.9259 -3.1004,-2.1864 -3.1004,-5.8784 0,-4.2788 0.3406,-4.6996 3.8029,-4.6996 5.1582,0 12.3651,5.0597 15.172,10.6516 2.6057,5.1911 2.0383,6.2791 -3.8928,7.4653 -3.5279,0.7056 -4.5299,0.2812 -6.5247,-2.7633 z m 499.286,0.1684 c -0.8698,-1.9089 -2.691,-3.8229 -4.0471,-4.2534 -3.2507,-1.0317 -5.4855,-5.38 -4.4469,-8.6523 2.0175,-6.3568 15.3172,-0.6616 19.7968,8.4773 1.3637,2.7822 2.2412,5.2968 1.9499,5.588 -0.2912,0.2913 -3.0364,0.9305 -6.1004,1.4204 -5.1046,0.8163 -5.7032,0.6003 -7.1523,-2.58 z m -475.8407,-6.2013 c 0,-0.3736 1.1973,-1.4287 2.664,-2.3446 1.4667,-0.916 2.6667,-2.8603 2.6667,-4.3208 0,-3.009 -0.6277,-2.867 15,-3.3927 6.5297,-0.2197 11.6666,0.1498 11.6666,0.8391 0,0.6774 -0.051,1.6145 -0.1138,2.0825 -0.2463,1.8399 3.6392,3.104 7.2236,2.35 3.376,-0.7101 3.7295,-0.4624 3.3334,2.3357 -0.3736,2.6387 -1.3248,3.194 -6.0589,3.5376 -3.0886,0.2241 -6.8022,-0.2275 -8.2524,-1.0036 -1.8673,-0.9994 -2.8968,-0.9902 -3.5282,0.031 -0.8835,1.4295 -24.5953,1.319 -24.601,-0.1146 z m -159.2848,-1.2379 c -0.4251,-0.6878 -0.6418,-2.9701 -0.4817,-5.0718 l 0.2912,-3.8213 13.403,0.072 13.403,0.072 0.4138,5 0.4138,5 h -13.3351 c -7.3343,0 -13.6829,-0.5627 -14.108,-1.2505 z m 317.0965,-0.7525 c -0.4228,-1.1016 -0.4198,-3.3927 0.01,-5.0912 0.7442,-2.9654 1.3068,-3.0912 14.1438,-3.1618 l 13.3685,-0.073 v 5.1648 5.1647 h -13.3752 c -10.6679,0 -13.5308,-0.4054 -14.1438,-2.003 z"
         id="path4820"
         inkscape:connector-curvature="0" />
      <path
         style="display:inline;fill:#4e4e4e;stroke-width:1.33333337"
         d="m 5675.7604,3377.8862 c -9.7841,-6.6907 -12.3992,-14.2857 -5.1101,-14.8412 3.0961,-0.2359 5.3965,0.8229 9.1445,4.2091 2.7543,2.4883 5.7821,4.7823 6.7284,5.0977 0.9463,0.3155 1.8261,2.3467 1.955,4.514 0.2117,3.5581 -0.1717,3.9507 -3.9516,4.0465 -2.3542,0.06 -6.1904,-1.2647 -8.7662,-3.0261 z m 20.0865,2.3492 c 0,-0.6733 -0.361,-2.165 -0.8022,-3.3148 -0.5554,-1.4471 0.3387,-2.5243 2.9052,-3.5001 3.0862,-1.1733 4.1433,-0.9737 6.3083,1.1913 2.5788,2.5788 2.5661,2.6187 -1.5057,4.7243 -4.6413,2.4002 -6.9056,2.695 -6.9056,0.8993 z m 35.2497,-3.6149 c -5.9795,-5.9795 -7.8144,-14.696 -6.8685,-32.6274 0.4162,-7.889 1.4023,-15.5499 2.1914,-17.0243 0.9998,-1.8682 1.0098,-2.9431 0.033,-3.5469 -0.961,-0.5939 -0.9108,-1.4578 0.1597,-2.7476 1.7207,-2.0733 4.5148,-2.619 3.2937,-0.6433 -0.4208,0.6809 0.5899,1.4309 2.2461,1.6667 3.9935,0.5685 4.6754,4.231 4.8705,26.159 0.1498,16.8278 0.3184,17.8798 3.3127,20.6667 1.888,1.7572 3.3878,4.9537 3.735,7.9602 0.5782,5.0063 0.5639,5.0229 -4.066,4.711 -3.1797,-0.2141 -5.9913,-1.6579 -8.9075,-4.5741 z m 18.3085,0.085 c -0.2563,-3.805 0.4877,-5.5086 3.7275,-8.5349 4.4225,-4.1313 4.4373,-4.2237 4.0708,-25.4208 -0.259,-14.978 0.6582,-19.5705 4.1287,-20.6719 1.4044,-0.4458 2.2118,-1.3633 1.7943,-2.039 -0.4176,-0.6756 0.711,-1.1067 2.5081,-0.958 2.8903,0.2392 3.1238,0.6479 2.0236,3.5416 -0.8095,2.1292 -0.7609,3.7539 0.1392,4.654 1.8386,1.8386 1.8116,36.8722 -0.032,41.7628 -2.3757,6.3012 -9.2273,12.4201 -13.9073,12.4201 -3.7886,0 -4.1592,-0.3956 -4.4527,-4.7539 z m 30.1995,-1.7824 c 0.2335,-3.3717 1.3339,-8.1273 2.4454,-10.5681 1.8647,-4.0944 1.8344,-4.5741 -0.3909,-6.2013 -2.0733,-1.5161 -2.447,-4.0559 -2.6616,-18.0919 -0.1373,-8.9804 0.062,-17.1398 0.4425,-18.1319 0.4135,-1.0777 2.7289,-1.8038 5.7519,-1.8038 h 5.0598 l 0.9117,7.8548 c 0.9475,8.1643 -0.1736,21.9152 -2.0879,25.6076 -0.6086,1.1738 -0.5589,2.674 0.1107,3.3436 1.9104,1.9104 1.9551,20.1644 0.055,22.4539 -0.905,1.0905 -3.539,1.9118 -5.8532,1.8251 -4.1537,-0.1557 -4.2023,-0.2363 -3.7833,-6.288 z m 16.4864,2.2898 c 0.4032,-4.1727 0.6976,-4.3886 6.4225,-4.7096 14.8415,-0.8322 13.3334,0.043 13.3334,-7.7387 0,-8.6579 -1.4677,-9.9951 -12.0204,-10.952 l -8.12,-0.7363 0.4035,-4.1418 c 0.3946,-4.0505 0.5718,-4.1506 8.0406,-4.5408 8.242,-0.4305 11.6963,-3.1335 11.6963,-9.1523 0,-3.8801 -1.1116,-4.4387 -11.0042,-5.5299 -8.1616,-0.9003 -8.3292,-0.9992 -8.3292,-4.9188 v -4 h 10.2388 c 8.3229,0 10.9425,0.5245 14,2.8029 6.16,4.5904 6.8284,8.6818 2.6674,16.3268 -3.9701,7.2945 -4.6179,13.2197 -1.5728,14.3882 2.731,1.048 2.5119,3.462 -0.828,9.1227 -2.5099,4.2541 -2.6077,5.0498 -0.8694,7.0762 3.7334,4.3525 3.8105,5.481 0.5213,7.6361 -2.0236,1.326 -7.3856,2.3841 -14.1317,2.7886 l -10.8706,0.6519 z m 51.5059,3.3357 c 0.9625,-0.3852 2.1125,-0.3378 2.5555,0.1053 0.4431,0.443 -0.3444,0.7581 -1.75,0.7002 -1.5532,-0.064 -1.8692,-0.3799 -0.8055,-0.8055 z m 13.055,-1.963 c -3.9829,-5.6864 -2.9572,-6.4595 8.5701,-6.4595 9.0346,0 10.8214,0.3647 11.4307,2.3333 0.3972,1.2833 1.2834,3.3833 1.9695,4.6667 1.102,2.0616 0.5473,2.3333 -4.764,2.3333 -3.3717,0 -6.0113,-0.6249 -6.0113,-1.4232 0,-1.2852 -2.1374,-0.993 -7.5284,1.0291 -0.8405,0.3153 -2.4905,-0.8006 -3.6666,-2.4797 z m 31.7712,-3.4595 c 0.4835,-3.4834 1.9935,-9.3334 3.3556,-13 1.362,-3.6667 4.7132,-13.5667 7.4469,-22 6.7401,-20.7926 6.1918,-20 13.8383,-20 7.0061,0 8.2161,0.9055 10.6901,8 0.895,2.5666 5.4569,15.6166 10.1374,29 l 8.5101,24.3333 h -7.0423 -7.0422 l -1.9017,-6.3333 -1.9018,-6.3334 -7.3333,-0.4097 c -8.7198,-0.4871 -9.8676,-1.3449 -8.0825,-6.0398 1.0554,-2.7761 2.2386,-3.5505 5.4247,-3.5505 5.4783,0 6.0738,-2.3258 3.2582,-12.7273 -2.1675,-8.0073 -3.8856,-11.0986 -5.353,-9.6311 -0.3164,0.3163 -2.6669,7.7264 -5.2235,16.4668 -5.8145,19.8791 -8.5654,26.225 -10.9685,25.3028 -1.0027,-0.3847 -2.1645,0.1903 -2.5819,1.278 -0.4173,1.0876 -1.9627,1.9775 -3.4342,1.9775 -2.4262,0 -2.5935,-0.5899 -1.7964,-6.3333 z m 72.0043,2.4347 c -9.4979,-6.4503 -11.4049,-14.7681 -3.3858,-14.7681 2.602,0 4.8227,1.1158 6.5231,3.2775 1.4179,1.8026 4.104,3.9727 5.9691,4.8225 2.3643,1.0772 3.5383,2.81 3.8774,5.7225 0.4498,3.8629 0.1749,4.1888 -3.6493,4.3269 -2.4746,0.089 -6.2238,-1.2687 -9.3345,-3.3813 z m 20.2288,1.7896 c -1.5065,-3.9258 -0.8208,-5.599 2.6515,-6.4705 3.552,-0.8915 7.2143,1.0135 7.1954,3.7428 -0.01,1.3588 -5.8429,4.8367 -8.1127,4.8367 -0.5087,0 -1.2891,-0.9491 -1.7342,-2.109 z m 44.5422,-6.891 c 0.022,-10.797 0.9943,-15 3.4706,-15 1.0145,0 1.8445,-0.6 1.8445,-1.3333 0,-0.7334 -0.4539,-1.3334 -1.0087,-1.3334 -1.2837,0 -4.3246,-9.6417 -4.3246,-13.7123 0,-3.8403 2.3354,-6.2877 6,-6.2877 1.54,0 3.52,0.72 4.4,1.6 2.0019,2.0019 2.1324,18.9139 0.1741,22.5729 -0.9314,1.7404 -0.9754,3.2127 -0.127,4.2457 0.7143,0.8698 1.5059,5.3325 1.7592,9.9172 l 0.4604,8.3358 h -6.3334 -6.3333 l 0.018,-9 z m 69.3641,-22.4616 0.13,-31.2051 h 5.8635 5.8636 l 0.3803,31.2555 0.3803,31.2555 -6.3738,-0.05 -6.3739,-0.05 0.13,-31.205 z m 36.6534,27.5852 c -3.4312,-14.5579 -4.6871,-17.1907 -8.9006,-18.6596 -2.3098,-0.8052 -5.6102,-1.464 -7.3341,-1.464 -2.5937,0 -3.1343,-0.6899 -3.1343,-4 0,-3.832 0.2438,-4 5.8053,-4 7.1657,0 12.8721,-4.5638 12.8409,-10.2697 -0.036,-6.5789 -4.3194,-9.7303 -13.2252,-9.7303 h -5.421 v -5.5248 -5.5248 l 9.436,0.877 c 15.4501,1.4359 21.2306,6.3938 21.2306,18.209 0,4.3821 -0.8463,6.3484 -4.158,9.6601 -3.6926,3.6925 -3.9637,4.4646 -2.4227,6.8974 0.9544,1.5067 2.178,5.1394 2.7191,8.0728 1.6372,8.8752 4.2243,17.2826 5.5981,18.192 0.7134,0.4723 -1.7441,0.828 -5.4611,0.7903 -6.1504,-0.062 -6.8315,-0.3793 -7.573,-3.5254 z m 29.7143,2.9656 c 0.9625,-0.3852 2.1125,-0.3378 2.5556,0.1053 0.443,0.443 -0.3445,0.7581 -1.75,0.7002 -1.5533,-0.064 -1.8692,-0.3799 -0.8056,-0.8055 z m 12.5688,-0.9041 c -0.069,-0.8351 -0.5455,-2.8929 -1.0586,-4.5728 -0.9296,-3.0431 -0.8894,-3.053 10.9034,-2.6667 8.8063,0.2885 11.7465,0.8282 11.4851,2.1084 -0.1933,0.9464 0.2778,2.8964 1.0469,4.3333 1.2931,2.4162 0.9434,2.6127 -4.6487,2.6127 -3.532,0 -6.0469,-0.6139 -6.0469,-1.476 0,-0.8973 -0.9148,-1.0844 -2.3333,-0.4772 -3.9017,1.6701 -9.2146,1.7487 -9.3479,0.1383 z m 63.3479,0.9319 c 0.9166,-0.3699 1.6666,-2.0667 1.6666,-3.7706 0,-4.2303 12.2108,-14.5491 15.8499,-13.394 4.5258,1.4364 5.6354,3.904 3.2725,7.2776 -3.2884,4.6948 -13.784,10.7836 -18.3834,10.6647 -2.2398,-0.058 -3.3223,-0.4079 -2.4056,-0.7777 z m 65.3333,0 c 0.9167,-0.3699 1.6667,-2.097 1.6667,-3.8379 0,-2.045 1.6845,-4.4834 4.7591,-6.8889 5.1114,-3.9991 8.5742,-9.4096 8.5742,-13.3968 0,-1.3597 2.0261,-4.6842 4.5024,-7.3877 l 4.5023,-4.9154 0.831,4.1548 c 1.5261,7.6304 0.814,13.7738 -2.22,19.1549 -3.7783,6.7009 -14.3925,14.0384 -20.0997,13.8947 -2.3005,-0.058 -3.4327,-0.4079 -2.516,-0.7777 z m 35.1026,-30.5779 v -31.2058 h 6.282 6.2821 v 31.2544 31.2544 l -6.2821,-0.049 -6.282,-0.049 v -31.2057 z m 35.8935,23.5891 c -0.9076,-4.0552 -2.2606,-8.7132 -3.0069,-10.351 -1.4202,-3.117 -7.1859,-5.7772 -12.5215,-5.7772 -2.5937,0 -3.1344,-0.6899 -3.1344,-4 0,-3.8918 0.174,-4 6.4343,-4 7.6597,0 12.2324,-3.7997 12.2324,-10.1644 0,-6.2862 -2.6091,-8.6239 -10.7313,-9.6152 l -7.2687,-0.8871 -0.4257,-5.2 -0.4258,-5.2001 9.5284,0.8856 c 15.6929,1.4585 21.3231,5.9731 21.3231,17.0981 0,5.1761 -0.7533,7.1816 -4.151,11.0514 -3.4839,3.9679 -3.8768,5.0583 -2.4446,6.784 0.9386,1.131 2.1591,4.5744 2.7122,7.652 1.5589,8.6746 4.2012,17.5147 5.4924,18.3757 0.6434,0.429 -1.7851,0.7668 -5.3966,0.7507 l -6.5663,-0.029 -1.65,-7.3732 z m 21.6452,-23.3938 0.1168,-30.8846 4.674,-0.3148 c 2.6822,-0.1807 5.1398,0.4195 5.7672,1.4084 1.6668,2.6275 1.3474,29.7962 -0.3953,33.621 -1.1292,2.4783 -1.1391,3.827 -0.038,5.154 0.8747,1.0539 1.3694,5.9526 1.196,11.8431 l -0.2957,10.0457 -5.5711,0.01 -5.5711,0.01 0.1168,-30.8846 z m 15.692,29.2656 c 0,-3.1394 4.9911,-7.3333 8.7273,-7.3333 1.8667,0 4.8667,-1.4728 6.6667,-3.2728 3.0944,-3.0944 3.2727,-4.1062 3.2727,-18.5699 0,-14.9376 -0.083,-15.3621 -3.5131,-18.0606 -2.1711,-1.7077 -5.4723,-2.7634 -8.6413,-2.7634 -4.2493,0 -5.2322,-0.5141 -5.7352,-3 -1.5315,-7.5682 -1.002,-8.0498 8.0507,-7.3232 9.933,0.7974 16.0511,4.0031 19.7917,10.3704 2.3269,3.9608 2.7104,6.901 2.6895,20.6195 -0.028,18.1899 -2.024,24.4418 -9.2022,28.8191 -5.359,3.2678 -22.1068,3.6574 -22.1068,0.5142 z m 53.3334,0.874 c 0,-0.6694 -1.8554,-1.9857 -4.123,-2.9249 -4.4936,-1.8613 -8.7678,-9.038 -7.4414,-12.4946 1.3603,-3.5447 8.4627,-2.6913 11.1,1.3338 1.245,1.9002 3.6743,3.9912 5.3982,4.6466 6.3196,2.4027 5.4092,9.2712 -1.3487,10.1762 -1.9718,0.2641 -3.5851,-0.068 -3.5851,-0.7371 z m 15.7387,-3.0318 c 0.669,-4.5582 6.2464,-6.4368 9.4693,-3.1895 1.9462,1.9607 1.8444,2.3559 -1.208,4.6886 -1.8334,1.401 -4.5617,2.4516 -6.063,2.3346 -2.1756,-0.1696 -2.6218,-0.9478 -2.1983,-3.8337 z m -264.8643,-4.1053 c -6.3773,-6.441 -7.0255,-9.7419 -2.1532,-10.9648 4.1933,-1.0524 3.2951,-2.8355 -1.9576,-3.886 -3.2294,-0.6459 -4.1177,-1.6406 -4.8232,-5.4013 -2.2577,-12.0345 5.4243,-25.9032 17.0349,-30.7545 7.6046,-3.1774 9.0247,-2.7626 9.0247,2.636 0,3.7167 -0.6606,4.9509 -3.1583,5.9005 -4.3772,1.6642 -8.7187,7.5681 -10.5212,14.3076 -1.3349,4.9912 -1.8886,5.5835 -4.586,4.9065 -2.2492,-0.5645 -3.0679,-0.1977 -3.0679,1.3746 0,1.3986 1.1594,2.1445 3.3334,2.1445 2.1215,0 3.3333,0.7511 3.3333,2.0662 0,3.4255 4.0841,10.3286 8.9083,15.0571 3.6275,3.5556 4.2319,4.8362 2.9893,6.3334 -2.9985,3.6129 -8.5103,2.1848 -14.3565,-3.7198 z m 69.0978,3.2936 c -4.804,-3.3648 -9.2151,-8.7073 -9.2634,-11.2193 -0.024,-1.2512 1.409,-2.553 3.3457,-3.0391 4.1667,-1.0457 3.304,-2.8337 -1.8661,-3.8677 -3.1746,-0.635 -4.0298,-1.6409 -4.7758,-5.6174 -2.275,-12.1267 5.2176,-25.6771 16.8961,-30.5567 7.6045,-3.1774 9.0246,-2.7626 9.0246,2.636 0,3.7167 -0.6606,4.9509 -3.1582,5.9005 -4.3772,1.6642 -8.7187,7.5681 -10.5213,14.3076 -1.3349,4.9912 -1.8885,5.5835 -4.586,4.9065 -2.2491,-0.5645 -3.0678,-0.1977 -3.0678,1.3746 0,1.3986 1.1594,2.1445 3.3333,2.1445 2.1215,0 3.3333,0.7511 3.3333,2.0662 0,3.4255 4.0842,10.3286 8.9083,15.0571 3.6275,3.5556 4.232,4.8362 2.9894,6.3334 -2.1107,2.5432 -6.6111,2.3621 -10.5921,-0.4262 z m -446.3056,-2.6249 c -2.7065,-0.5332 -3,-1.3629 -3,-8.4804 0,-7.8068 0.051,-7.9105 4.8295,-9.9073 2.6563,-1.1098 5.0258,-2.0179 5.2657,-2.0179 0.2399,0 0.3166,4.6424 0.1705,10.3165 -0.2812,10.9212 -0.6244,11.3977 -7.2657,10.0891 z m 318,-0.038 c -3.5257,-0.524 -3.6666,-0.8483 -3.6666,-8.4385 0,-7.8052 0.054,-7.916 4.8083,-9.9026 2.6445,-1.1049 5.1945,-1.7712 5.6666,-1.4806 1.3734,0.8455 -0.3365,19.8875 -1.8083,20.1388 -0.7333,0.1253 -2.9833,-0.017 -5,-0.3171 z m -162.7066,-2.887 c -3.1733,-1.8384 -3.6529,-2.8815 -3.3333,-7.2486 0.3541,-4.8388 0.099,-5.2062 -4.9601,-7.1459 -2.9333,-1.1247 -8.7668,-2.4498 -12.9633,-2.9445 -15.3288,-1.8074 -22.7727,-13.5718 -15.8112,-24.9884 2.7641,-4.5331 13.0677,-9.427 16.8178,-7.988 3.2946,1.2643 1.8314,6.551 -2.3685,8.5576 -4.6252,2.2099 -6.1343,7.4892 -3.0994,10.8428 1.9949,2.2044 5.1172,3.2965 18.758,6.5616 3.0826,0.7379 4.098,1.8024 4.4276,4.6416 0.3307,2.8484 0.9686,3.5125 2.8118,2.9275 3.2479,-1.0309 5.7257,2.3169 4.7099,6.3638 -0.4642,1.8497 -0.1948,3.7093 0.6093,4.2063 1.9154,1.1838 1.8236,3.7493 -0.2253,6.2927 -1.5042,1.8673 -2.0281,1.8596 -5.3733,-0.078 z m -289.8605,-0.9806 c -2.3334,-1.6304 -2.7563,-2.9157 -2.1627,-6.5731 0.5943,-3.6625 0.2509,-4.7011 -1.7662,-5.3414 -1.3772,-0.4372 -4.0965,-1.6478 -6.043,-2.6903 -1.9465,-1.0425 -6.4465,-1.8976 -10,-1.9004 -8.223,-0.01 -14.6208,-3.7897 -17.3158,-10.2397 -2.5764,-6.1661 -1.4657,-12.4044 3.0043,-16.8744 3.8085,-3.8085 11.5864,-6.8567 14.5722,-5.711 3.4918,1.34 2.1309,6.6489 -2.4397,9.5178 -9.021,5.6621 -5.2879,11.2478 9.8825,14.7868 9.7242,2.2685 11.8125,3.6589 10.8757,7.2412 -0.7208,2.7564 1.5088,3.6322 3.0204,1.1864 1.4145,-2.2888 4.1303,2.7692 4.973,9.2621 1.2179,9.3843 -0.6686,11.4809 -6.6007,7.336 z m 789.1246,0.3361 c -2.527,-1.2215 -2.9863,-2.2734 -2.4527,-5.6174 0.3611,-2.2629 0.2602,-4.6629 -0.2241,-5.3333 -1.5916,-2.203 -10.0631,-4.8606 -18.8237,-5.9052 -7.5598,-0.9014 -9.1451,-1.6108 -13,-5.8173 -3.6318,-3.963 -4.3903,-5.8483 -4.3903,-10.9127 0,-4.9444 0.7267,-6.8489 3.7771,-9.8993 4.9102,-4.9102 14.5542,-8.0174 16.326,-5.2602 1.9514,3.0365 0.869,5.5249 -3.4364,7.8998 -2.9335,1.6182 -4.1121,3.3441 -4.4202,6.473 -0.374,3.7978 0.11,4.488 4.4062,6.283 2.6544,1.1092 7.884,2.5965 11.6212,3.3052 8.0958,1.5354 10.3552,3.1371 9.4278,6.6836 -0.5158,1.9724 -0.1709,2.4384 1.3678,1.8479 2.8836,-1.1065 7.8371,3.9767 5.8306,5.9832 -1.1111,1.1111 -1.0765,2.1781 0.1333,4.1153 2.2258,3.564 2.0506,6.206 -0.4758,7.1755 -1.16,0.4451 -2.21,0.7356 -2.3333,0.6456 -0.1234,-0.09 -1.6234,-0.8401 -3.3335,-1.6667 z m -672.2241,-4.0064 c 0,-4.1193 3.3345,-7.1538 4.5061,-4.1007 0.9175,2.391 -1.2434,7.2708 -3.2197,7.2708 -0.7075,0 -1.2864,-1.4265 -1.2864,-3.1701 z m 33.6666,-13.7129 c -0.9166,-0.3699 -1.6666,-1.8374 -1.6666,-3.2611 0,-3.7427 5.93,-5.5366 14.8719,-4.4987 6.1281,0.7112 7.6812,1.3979 8.272,3.6573 0.4001,1.5299 0.421,3.2775 0.046,3.8836 -0.724,1.1714 -18.7097,1.3543 -21.5237,0.2189 z m 317.0141,-1.1 c -4.2462,-5.1164 3.541,-8.3756 15.3219,-6.4127 5.9396,0.9896 6.7099,1.5063 7.0859,4.753 l 0.4219,3.6427 h -10.5919 c -7.7482,0 -11.0339,-0.5324 -12.2378,-1.983 z m -336.0141,-2.1068 c 0,-2.1528 0.586,-2.5706 2.6754,-1.9074 5.4775,1.7385 5.7007,-9.3764 0.3135,-15.6131 -1.7449,-2.0201 -1.6776,-2.7722 0.5969,-6.6667 1.41,-2.4143 3.4301,-4.3897 4.489,-4.3897 1.5403,0 1.965,2.74 2.1242,13.7049 l 0.199,13.7049 -4.6951,1.9618 c -5.897,2.4639 -5.7029,2.491 -5.7029,-0.7947 z m 317.3334,-0.066 c 0,-2.1119 0.6348,-2.6562 2.5222,-2.1626 2.0808,0.5441 2.6743,-0.2912 3.3909,-4.7725 0.6815,-4.262 0.2991,-6.2023 -1.7752,-9.008 -2.5736,-3.4809 -2.5797,-3.6956 -0.2326,-8.072 4.4476,-8.2932 6.0703,-5.9363 6.3265,9.1889 l 0.2318,13.6849 -3.8323,1.9817 c -5.1827,2.6801 -6.6313,2.4965 -6.6313,-0.8404 z m 164.6525,-6.5558 c -1.2691,-3.9984 -7.3501,-10.6998 -10.9522,-12.0693 -2.621,-0.9965 -3.1269,-2.0049 -2.7849,-5.5519 0.3731,-3.869 0.8308,-4.3046 4.2653,-4.0584 10.7047,0.7673 25.2167,18.701 17.1526,21.1967 -1.2833,0.3972 -3.3482,1.2616 -4.5887,1.9208 -1.7003,0.9036 -2.4613,0.5497 -3.0921,-1.4379 z m -68.4254,-5.2667 c -1.6176,-2.1879 -4.7659,-4.9216 -6.9963,-6.075 -3.4194,-1.7683 -3.9906,-2.7647 -3.643,-6.3554 0.3698,-3.8211 0.8194,-4.2283 4.3798,-3.966 4.9574,0.3651 13.9891,6.5948 16.6734,11.5006 1.911,3.4926 1.8474,3.8486 -1.1221,6.288 -4.2669,3.5052 -5.8459,3.2687 -9.2918,-1.3922 z m -550.6512,-3.3553 c -0.8353,-1.8334 -2.0888,-3.3334 -2.7854,-3.3334 -1.7931,0 -5.4611,-3.8874 -5.4368,-5.7619 0.054,-4.139 2.1602,-5.1384 7.6912,-3.6491 6.2348,1.6789 12.2884,8.0075 12.2884,12.8467 0,2.8581 -0.5908,3.231 -5.1193,3.231 -4.1667,0 -5.4019,-0.6203 -6.6381,-3.3333 z m 286.0907,-1.9699 c -4.9004,-4.807 -6.4155,-9.6646 -3.5642,-11.4268 2.7486,-1.6987 12.4877,3.2792 15.7174,8.0336 3.9848,5.866 3.038,8.762 -2.778,8.4972 -3.0818,-0.1403 -5.8532,-1.6491 -9.3752,-5.104 z m 500,0.044 c -7.6479,-7.7939 -6.4879,-13.6525 2.1395,-10.8052 4.8572,1.603 10.2231,6.8335 12.4702,12.1554 1.4138,3.3483 1.3228,3.4282 -4.0818,3.585 -4.7476,0.1376 -6.2336,-0.5589 -10.5279,-4.9352 z m -466.2604,-2.9705 c -1.7434,-0.6483 -2.2279,-1.8463 -1.7524,-4.3334 0.3614,-1.8905 1.0371,-3.4903 1.5016,-3.5551 0.4645,-0.065 3.6938,-0.3365 7.1762,-0.6038 5.854,-0.4494 6.4826,-0.194 8.3333,3.3849 1.1009,2.129 2.0017,4.1452 2.0017,4.4804 0,1.0396 -14.7136,1.574 -17.2604,0.627 z m -165.3283,-2.2917 c -0.7709,-1.4405 -1.0317,-3.5835 -0.5794,-4.7621 0.6913,-1.8013 2.869,-2.0824 13.6619,-1.7632 l 12.8396,0.3796 v 4 4 l -12.2602,0.3824 c -11.0398,0.3444 -12.3997,0.1217 -13.6619,-2.2367 z m 187.0123,0.9185 c -2.1473,-2.7676 -3.1204,-6.3975 -1.7151,-6.3975 2.4555,0 3.2916,0.6746 3.3051,2.6667 0.01,1.4602 1.535,2 5.6509,2 3.1005,0 5.7943,0.6 5.9864,1.3333 0.5411,2.0666 -11.6482,2.4329 -13.2273,0.3975 z m 130.394,-1.3471 c -2.1727,-5.8453 -0.7669,-6.5041 13.0095,-6.0967 l 12.8396,0.3796 v 4 4 l -12.3577,0.3837 c -11.822,0.3671 -12.4068,0.2515 -13.4914,-2.6666 z"
         id="path4818"
         inkscape:connector-curvature="0" />
      <path
         style="display:inline;fill:#2e2e2e;stroke-width:1.33333337"
         d="m 5680.208,3380.6207 c 0.4028,-0.6517 -1.6021,-2.3205 -4.4553,-3.7083 -2.8532,-1.3878 -5.5397,-3.6324 -5.9699,-4.988 -0.4303,-1.3556 -1.3419,-2.4647 -2.0258,-2.4647 -0.6839,0 -1.2435,-1.0827 -1.2435,-2.406 0,-3.7285 9.9991,-3.9994 11.9661,-0.3241 0.7955,1.4864 3.2285,3.6241 5.4068,4.7505 4.3926,2.2716 5.2795,6.5366 1.6271,7.825 -1.2833,0.4526 -3.1668,1.2004 -4.1856,1.6618 -1.0187,0.4613 -1.5227,0.3055 -1.1199,-0.3462 z m 15.9515,-2.4114 c -0.1874,-2.2636 0.5746,-3.5182 2.51,-4.1324 4.4444,-1.4106 6.2194,1.5472 2.8258,4.7088 -3.7653,3.5079 -5.0089,3.3735 -5.3358,-0.5764 z m 36.0297,-1.3364 c -6.1299,-5.9213 -7.009,-9.5969 -7.009,-29.3053 0,-16.9597 0.14,-17.8696 3.2697,-21.2465 6.5905,-7.1113 7.1156,-5.5965 7.5325,21.7263 0.2626,17.2169 0.7179,21.7574 2.2689,22.6254 1.0672,0.5972 1.6701,1.8967 1.3397,2.8877 -0.3303,0.991 0.9085,3.2004 2.7529,4.9097 l 3.3534,3.1079 -4.6422,-0.3127 c -3.0845,-0.2077 -6.0595,-1.6816 -8.8659,-4.3925 z m 18.102,-0.8116 c 0.3634,-3.8109 1.4219,-5.9928 3.5993,-7.4194 1.9716,-1.2919 3.4042,-3.9141 3.9709,-7.2683 0.5426,-3.2116 1.6169,-5.2472 2.7693,-5.2472 1.0356,0 1.8828,-0.6 1.8828,-1.3334 0,-0.7333 -0.9,-1.3333 -2,-1.3333 -1.6568,0 -2,-2.5222 -2,-14.6997 0,-14.5449 0.036,-14.7133 3.4136,-15.9975 2.2201,-0.8441 3.063,-1.8814 2.4107,-2.967 -0.675,-1.1236 -0.2601,-1.0666 1.2696,0.1744 1.7402,1.4118 1.918,2.2706 0.7593,3.6667 -1.1357,1.3685 -1.0958,2.3259 0.1603,3.8393 2.5134,3.0285 3.4469,31.0536 1.2908,38.7543 -2.1065,7.5236 -9.4656,15.2295 -14.544,15.2295 -3.2832,0 -3.4659,-0.3306 -2.9826,-5.3984 z m 28.9966,4.4737 c 0.7844,-0.2615 1.2493,-3.1401 1.051,-6.5068 -0.2528,-4.291 0.2032,-6.2523 1.5762,-6.7791 1.0625,-0.4078 1.9319,-1.7842 1.9319,-3.0587 0,-2.9535 5.2795,-8.0663 5.4426,-5.2707 0.06,1.0303 0.3673,5.3492 0.6827,9.5976 0.7587,10.2183 -0.7578,12.9126 -7.1329,12.6729 -2.727,-0.1025 -4.3252,-0.3974 -3.5515,-0.6552 z m 17.0926,-2.8426 c 0.1232,-3.2992 0.512,-3.5327 5.1956,-3.1213 2.7844,0.2446 5.8986,-0.2492 6.9205,-1.0973 1.0219,-0.8481 2.9438,-1.3632 4.2709,-1.1447 1.327,0.2186 3.2204,-0.1086 4.2074,-0.7271 2.3694,-1.4847 6.1644,2.304 5.0962,5.0876 -0.4894,1.2756 -2.3979,2.1034 -4.849,2.1034 -2.223,0 -4.0418,0.45 -4.0419,1 -10e-5,0.55 -3.81,1.1048 -8.4665,1.2328 -8.3775,0.2302 -8.465,0.1952 -8.3332,-3.3334 z m 51.2165,2.8565 c 0.9625,-0.3852 2.1125,-0.3378 2.5555,0.1053 0.4431,0.443 -0.3444,0.7581 -1.75,0.7002 -1.5532,-0.064 -1.8692,-0.3799 -0.8055,-0.8055 z m 13.0958,-3.1449 -2.3957,-4.0556 11.1083,0.389 c 6.1095,0.2139 10.8568,0.689 10.5496,1.0556 -0.3073,0.3667 0.1638,2.0167 1.0469,3.6667 1.5408,2.8789 1.3901,3 -3.7328,3 -4.4128,0 -5.1921,-0.3814 -4.4944,-2.1996 0.7105,-1.8514 0.2291,-2.0468 -3.0418,-1.2347 -2.1373,0.5306 -4.0859,1.5204 -4.3304,2.1996 -0.7921,2.2007 -2.2641,1.3191 -4.7097,-2.821 z m 32.6612,-2.2776 c 1.5659,-8.5296 14.2902,-48.2412 16.6617,-52 1.4158,-2.2441 3.1448,-2.9949 6.862,-2.9796 2.7331,0.011 5.6908,0.4791 6.5728,1.0396 0.8819,0.5606 5.8937,13.3014 11.1373,28.3129 5.2436,15.0116 10.0932,28.3437 10.7768,29.6271 1.1137,2.0909 0.476,2.3333 -6.1374,2.3333 -4.0591,0 -7.2659,-0.45 -7.1262,-1 0.7048,-2.7751 -2.1403,-9.9027 -4.6563,-11.665 -1.5718,-1.1009 -5.4242,-2.0017 -8.5611,-2.0017 -4.6032,0 -5.7033,-0.4629 -5.7033,-2.4 0,-3.4439 2.6391,-5.6 6.8546,-5.6 2.0101,0 4.0157,-0.5842 4.4571,-1.2982 0.4413,-0.7141 -0.5242,-6.1386 -2.1455,-12.0546 -4.1344,-15.086 -5.7408,-14.065 -11.9001,7.5635 -5.7134,20.062 -6.3071,21.3743 -10.7072,23.663 -1.7741,0.9227 -3.0756,2.3786 -2.8922,3.2353 0.1833,0.8568 -0.7892,1.5577 -2.1612,1.5577 -2.2503,0 -2.3807,-0.6202 -1.3318,-6.3333 z m 76.4549,5.0615 c 0.3775,-0.6107 -0.8612,-1.4988 -2.7526,-1.9735 -4.8339,-1.2132 -9.876,-6.6731 -9.876,-10.6941 0,-2.7721 0.6396,-3.3939 3.4906,-3.3939 1.9199,0 5.4273,1.65 7.7943,3.6666 2.3669,2.0167 5.4437,4.3305 6.8371,5.1419 2.2264,1.2962 2.3229,1.8688 0.7959,4.722 -0.9557,1.7858 -2.9162,3.3356 -4.3566,3.4441 -1.4404,0.1085 -2.3101,-0.3024 -1.9327,-0.9131 z m 15.6162,-2.3835 c 0.4531,-3.9258 4.2782,-5.6884 6.8228,-3.1438 1.0458,1.0458 0.6495,2.1978 -1.4192,4.1251 -3.9742,3.7025 -5.9038,3.3521 -5.4036,-0.9813 z m 45.0885,-7.3421 c 0.6156,-10.1586 0.8968,-11.0353 3.6667,-11.4287 3.719,-0.5281 3.7211,-0.4847 -0.3333,-6.9072 -2.1271,-3.3695 -3.3334,-7.22 -3.3334,-10.6402 0,-5.0523 0.2268,-5.3598 3.9531,-5.3598 2.482,0 4.4445,0.9181 5.2735,2.4672 1.5972,2.9842 0.5624,19.3517 -1.2629,19.9772 -1.9436,0.666 -1.5628,3.6751 0.703,5.5556 1.3627,1.1309 2,4.1572 2,9.4966 v 7.8367 h -5.6667 -5.6666 l 0.6666,-11.0026 z m 68.6667,-20.4736 v -31.1957 h 5.5741 5.574 l 0.1358,30.1972 c 0.075,16.6085 0.3908,30.6098 0.7025,31.1141 0.3117,0.5043 -2.2578,0.9537 -5.7099,0.9986 l -6.2765,0.082 v -31.1957 z m 37.2615,30.4318 c 0.673,-0.6731 -4.641,-19.389 -5.8808,-20.7119 -0.559,-0.5965 -3.9483,-1.5039 -7.5318,-2.0165 -5.8026,-0.83 -6.5156,-1.2949 -6.5156,-4.2489 0,-2.9835 0.5397,-3.3174 5.3701,-3.3229 7.7785,-0.01 13.1633,-4.2791 13.1633,-10.4388 0,-6.6899 -3.5835,-10.2167 -10.4067,-10.2422 -7.2061,-0.027 -8.9363,-1.3255 -8.5485,-6.4156 0.2863,-3.7567 0.7761,-4.2289 4.3721,-4.2148 5.9741,0.023 17.9605,3.4901 20.7286,5.9952 6.7024,6.0656 6.5774,16.474 -0.2783,23.1768 -3.9556,3.8673 -4.0657,4.2355 -1.9624,6.5597 1.2469,1.3777 2.2285,4.6606 2.2285,7.4527 0,2.7446 0.9,5.8902 2,6.9902 1.1,1.1 2,3.7572 2,5.9048 0,2.582 -0.6775,3.9047 -2,3.9047 -1.1,0 -2,0.5627 -2,1.2505 0,0.6878 -1.1743,1.162 -2.6095,1.0539 -1.4352,-0.1081 -2.3933,-0.4127 -2.129,-0.6769 z m 28.4885,0.1284 c 0.9625,-0.3852 2.1125,-0.3378 2.5556,0.1052 0.443,0.4431 -0.3445,0.7582 -1.75,0.7003 -1.5533,-0.064 -1.8692,-0.3799 -0.8056,-0.8055 z m 13.5528,-2.7559 -2.8908,-3.6666 9.6692,-0.396 c 10.2181,-0.4184 13.9136,0.247 12.6577,2.2791 -0.4199,0.6794 0.185,2.1836 1.3441,3.3427 1.9211,1.9211 1.6274,2.1075 -3.3211,2.1075 -3.9365,0 -5.4286,-0.5497 -5.4286,-2 0,-1.1 -0.8571,-2 -1.9047,-2 -1.0477,0 -2.8048,0.9 -3.9048,2 -2.6506,2.6506 -2.862,2.594 -6.221,-1.6667 z m 64.5628,-1.1383 c 1.0252,-3.356 2.9723,-5.6678 6.4575,-7.6666 2.7443,-1.574 4.9943,-3.6117 5,-4.5284 0.012,-2.0494 0.3584,-2.0584 4.6142,-0.1193 4.4729,2.038 4.2843,3.7718 -0.9373,8.6176 -5.7411,5.3279 -11.0002,8.5017 -14.0875,8.5017 -2.2703,0 -2.372,-0.4669 -1.0469,-4.805 z m 65.4079,0.075 c 0.9599,-2.7921 3.5542,-6.0398 6.3332,-7.9282 3.52,-2.3919 5.0881,-4.711 6.2171,-9.195 1.3126,-5.2127 5.3607,-10.1472 8.3245,-10.1472 0.4885,0 1.2763,2.0684 1.7506,4.5964 0.986,5.2561 -1.712,12.9177 -6.2959,17.8783 -4.0598,4.3935 -12.3671,9.5253 -15.4194,9.5253 -2.3214,0 -2.3985,-0.4002 -0.9101,-4.7296 z m 33.3932,-26.7414 v -31.1957 h 5.574 5.5741 l 0.1358,30.1972 c 0.075,16.6085 0.3908,30.6098 0.7025,31.1141 0.3116,0.5043 -2.2578,0.9537 -5.7099,0.9986 l -6.2765,0.082 v -31.1957 z m 37.0133,28.5395 c -0.094,-1.2466 -1.2035,-5.9473 -2.4658,-10.4459 -2.4611,-8.7716 -4.6781,-10.6226 -12.7229,-10.6226 -3.5789,0 -3.9572,-0.3874 -3.5799,-3.6667 0.3875,-3.3675 0.8967,-3.6702 6.2414,-3.7101 10.2107,-0.076 15.3997,-9.5044 9.4171,-17.1101 -2.1906,-2.7849 -3.918,-3.5173 -8.3333,-3.5335 -7.3182,-0.027 -9.0476,-1.3082 -8.6584,-6.4156 0.2862,-3.7567 0.7761,-4.2289 4.3721,-4.2148 6.677,0.026 18.1712,3.6335 21.4792,6.7412 6.2285,5.8513 5.6842,16.4916 -1.1636,22.7461 -3.9639,3.6205 -4.0185,3.8235 -1.7135,6.3706 1.3368,1.4772 2.3809,4.6898 2.3809,7.326 0,2.5822 0.84,5.3922 1.8667,6.2442 2.6475,2.1972 2.4796,10.556 -0.212,10.556 -1.1433,0 -1.7473,0.5363 -1.3422,1.1918 0.4051,0.6554 -0.6431,1.1058 -2.3293,1.0008 -1.8442,-0.1148 -3.1338,-1.094 -3.2365,-2.4574 z m 20.6487,-10.3218 c 0.4735,-14.2485 0.502,-12.9638 -0.4931,-22.2036 -0.5546,-5.1493 -0.2204,-7.3012 1.3832,-8.9048 2.3008,-2.3008 2.9489,-6.978 0.7812,-5.6383 -1.4652,0.9056 -1.8612,-7.0729 -0.524,-10.5576 0.4799,-1.2507 2.3792,-2.1091 4.6667,-2.1091 h 3.8573 v 17.0667 c 0,9.5053 -0.5859,17.6525 -1.3223,18.389 -0.8742,0.8742 -0.8113,2.6761 0.1856,5.3173 0.9681,2.5649 1.1635,7.2108 0.5458,12.9787 l -0.962,8.9837 -4.271,-0.2876 -4.271,-0.2876 z m 15.9201,10.92 c 1.4447,-4.0524 3.3134,-5.6667 6.5601,-5.6667 1.732,0 5.0171,-1.6691 7.3002,-3.7091 3.6469,-3.2585 4.2373,-4.7804 4.859,-12.5258 0.3892,-4.8491 0.2827,-12.218 -0.2367,-16.3752 -0.8238,-6.5936 -1.484,-7.8876 -5.1712,-10.1359 -2.3248,-1.4176 -6.1112,-2.5796 -8.4143,-2.5823 -3.7918,0 -4.239,-0.446 -4.7323,-4.6717 -0.5373,-4.6028 -0.4762,-4.6667 4.4708,-4.6667 2.7586,0 8.4014,1.2668 12.5395,2.8151 6.6452,2.4863 7.8315,3.5102 10.1567,8.7667 2.2524,5.0919 2.5691,8.2961 2.1927,22.1849 -0.3888,14.3455 -0.7927,16.7278 -3.4729,20.4855 -4.1898,5.8738 -9.9659,8.4145 -19.1301,8.4145 -6.8121,0 -7.6523,-0.2833 -6.9215,-2.3333 z m 53.7512,1.1641 c 0,-0.552 -2.1311,-2.0198 -4.7358,-3.2619 -2.9304,-1.3974 -5.4265,-3.901 -6.5475,-6.5671 -2.2195,-5.2786 -1.6639,-6.3351 3.3312,-6.3351 2.6835,0 4.5714,1.039 6.085,3.349 1.2069,1.8419 3.5773,3.6961 5.2676,4.1203 3.8625,0.9694 5.0601,3.8796 2.6063,6.3334 -1.0339,1.0339 -1.6341,2.1255 -1.3339,2.4258 0.3003,0.3003 -0.6282,0.6344 -2.0634,0.7425 -1.4352,0.1081 -2.6095,-0.255 -2.6095,-0.8069 z m 16,-0.055 c 0,-0.6733 -0.3358,-2.0993 -0.7462,-3.1688 -0.5027,-1.31 0.435,-2.241 2.8735,-2.8531 4.7782,-1.1992 6.6482,1.6588 3.192,4.8787 -2.7456,2.558 -5.3193,3.1111 -5.3193,1.1432 z m -260.2577,-3.7757 c -0.9583,-1.2833 -2.5326,-2.4968 -3.4986,-2.6966 -1.6884,-0.3491 -8.1148,-6.8875 -8.2016,-8.3444 -0.023,-0.3892 1.9079,-1.454 4.2912,-2.3662 3.7515,-1.4357 4.5124,-1.3599 5.6667,0.5648 0.7333,1.2228 2.9833,3.9582 5,6.0788 4.1407,4.354 4.6565,7.0985 1.5576,8.2876 -2.8753,1.1034 -2.8468,1.1124 -4.8153,-1.524 z m 65.3333,-0.1541 c -0.9582,-1.3681 -2.2073,-2.5231 -2.7756,-2.5667 -1.8866,-0.1446 -2.9389,-0.923 -6.1014,-4.5129 l -3.1348,-3.5584 4.4188,-2.2851 c 4.1961,-2.1699 4.4885,-2.1655 5.8014,0.086 0.7605,1.3043 3.0327,4.1065 5.0493,6.2271 4.1407,4.354 4.6565,7.0985 1.5576,8.2876 -2.8906,1.1093 -2.854,1.122 -4.8153,-1.6781 z m -447.938,-3.7385 c -2.2013,-0.5847 -3.9307,-8.2346 -2.8292,-12.5149 0.4888,-1.8997 8.226,-5.8359 9.3203,-4.7416 0.2591,0.2591 -0.2679,2.0932 -1.1711,4.0756 -1.3031,2.86 -1.3004,4.152 0.013,6.2557 1.8585,2.9759 0.8555,7.9001 -1.5608,7.6631 -0.8673,-0.085 -2.565,-0.4171 -3.7726,-0.7379 z m 317.1957,-0.027 c -1.8527,-0.4842 -2.3333,-2.0681 -2.3333,-7.6898 0,-5.5985 0.4883,-7.2205 2.3333,-7.751 1.2834,-0.369 3.2334,-1.0455 4.3334,-1.5033 1.6537,-0.6884 1.9685,0.4974 1.8184,6.8487 -0.2896,12.2505 0.038,11.7129 -6.1518,10.0954 z m -449,-2.9176 c 0,-0.8232 -1.25,-1.4966 -2.7777,-1.4966 -3.5175,0 -2.6641,-3.1873 0.9988,-3.731 3.8491,-0.5714 6.4304,2.8638 3.7954,5.0507 -1.3859,1.1501 -2.0165,1.2054 -2.0165,0.1769 z m 287,-0.7289 c -1.65,-0.77 -3,-2.1578 -3,-3.0839 0,-2.431 6.5998,-2.0763 7.5523,0.4058 1.152,3.0023 -1.064,4.306 -4.5523,2.6781 z m 500,-0.035 c -1.65,-0.7509 -3,-2.1634 -3,-3.139 0,-1.2367 0.9082,-1.4812 3,-0.8075 1.65,0.5313 3.75,0.9717 4.6667,0.9787 0.9167,0.01 1.6667,1.0126 1.6667,2.2349 0,2.5085 -1.9387,2.7328 -6.3334,0.7329 z m -680.3283,-5.4781 c -0.01,-6.9408 -2.7475,-9.1622 -12.2271,-9.9164 -7.9395,-0.6316 -8.4446,-0.8711 -8.4446,-4.0051 0,-2.9408 0.6281,-3.3752 5.3334,-3.6887 9.5935,-0.6393 11.4146,-1.5137 13.488,-6.4758 1.3888,-3.324 2.5878,-4.5025 4.0211,-3.9525 1.1233,0.431 2.2932,0.7837 2.5999,0.7837 1.36,0 0.368,5.0107 -1.5278,7.7173 -2.0774,2.9659 -1.8285,6.0516 0.9466,11.7351 1.0533,2.1574 0.7348,3.8116 -1.4122,7.3334 l -2.7723,4.5475 -0.01,-4.0785 z m 7.995,0.7452 c 0,-0.7334 0.6,-1.3334 1.3333,-1.3334 0.7334,0 1.3334,0.6 1.3334,1.3334 0,0.7333 -0.6,1.3333 -1.3334,1.3333 -0.7333,0 -1.3333,-0.6 -1.3333,-1.3333 z m -119.292,-5.2665 c -0.9082,-1.4695 3.8602,-4.3875 5.1167,-3.1311 0.4631,0.4631 0.842,1.642 0.842,2.6198 0,2.0245 -4.7705,2.4339 -5.9587,0.5113 z m 289.3333,0 c -0.9082,-1.4695 3.8602,-4.3875 5.1167,-3.1311 0.4631,0.4631 0.842,1.642 0.842,2.6198 0,2.0245 -4.7704,2.4339 -5.9587,0.5113 z m 500.2633,0.4599 c -1.4523,-1.4522 0.3027,-3.1934 3.2185,-3.1934 1.5664,0 2.4662,0.6994 2.1442,1.6666 -0.634,1.904 -4.0212,2.8684 -5.3627,1.5268 z m -278.9713,-1.5672 c -4.6218,-1.005 -6,-3.1104 -6,-9.1656 0,-13.401 11.0984,-27.1273 21.9338,-27.1273 5.4221,0 4.6264,5.6909 -1.3086,9.3589 -4.8845,3.0189 -9.9585,11.1566 -9.9585,15.9718 0,2.2187 -0.7206,2.6938 -3.6193,2.3864 -2.571,-0.2726 -3.7578,0.2921 -4.0977,1.9496 -0.3549,1.7304 0.3877,2.3333 2.8739,2.3333 3.5793,0 5.8959,2.2541 3.9936,3.8859 -0.6328,0.5428 -2.3505,0.726 -3.8172,0.407 z m -436.0208,-3.2635 c -0.4142,-1.6662 -0.5789,-9.9294 -0.3661,-18.3627 l 0.3869,-15.3334 h 4.6667 4.6667 l 0.4351,14.4493 c 0.3756,12.4734 0.1041,14.8149 -1.9851,17.1235 -4.3623,4.8202 -6.9582,5.5265 -7.8042,2.1233 z m 496.9542,1.3706 c -2.2494,-2.2494 -1.9903,-12.218 0.4707,-18.1095 3.7287,-8.9262 12.708,-16.2905 19.8631,-16.2905 5.4221,0 4.6264,5.6909 -1.3086,9.3589 -4.9233,3.0428 -9.9586,11.1661 -9.9586,16.0659 0,2.3961 -0.5496,2.7263 -3.3626,2.0203 -2.3846,-0.5985 -3.5959,-0.236 -4.1647,1.2463 -0.9922,2.5856 -0.486,3.1198 3.5379,3.7339 1.7501,0.2671 3.4136,1.1807 3.6968,2.0302 0.6901,2.0702 -6.695,2.0235 -8.774,-0.055 z m -582.8136,-1.933 c -2.5007,-1.0903 -5.9457,-1.6311 -7.6554,-1.202 -4.2014,1.0545 -11.3791,-2.1313 -14.9072,-6.6166 -3.828,-4.8665 -3.9007,-13.6711 -0.1523,-18.4365 2.9434,-3.7419 11.7304,-7.0849 15.1617,-5.7681 3.1079,1.1926 2.5471,4.7856 -0.9547,6.117 -4.467,1.6983 -6.5288,4.7767 -6.0415,9.0207 0.5038,4.3889 6.2699,7.6711 15.763,8.9725 8.1638,1.1192 9.6777,2.2763 8.5994,6.5725 -1.0041,4.0006 -3.0651,4.2822 -9.813,1.3405 z m 290.9862,0.7723 c -0.7851,-0.7851 -4.8035,-1.615 -8.9298,-1.8443 -7.3575,-0.4089 -13.1137,-2.9588 -16.4671,-7.2948 -2.3229,-3.0035 -2.0925,-13.6261 0.3719,-17.1445 2.6087,-3.7245 8.7342,-6.9557 13.1862,-6.9557 2.6929,0 3.3995,0.6605 3.3995,3.1778 0,1.9997 -0.9383,3.4232 -2.5309,3.8397 -4.1188,1.0771 -7.2781,6.9357 -5.5158,10.2286 1.5579,2.9109 9.2883,6.7539 13.5857,6.7539 1.4007,0 4.5557,0.8395 7.0113,1.8655 3.7846,1.5813 4.3637,2.3937 3.8018,5.3333 -0.7049,3.6872 -5.126,4.8273 -7.9128,2.0405 z m 499.9201,-0.08 c -0.829,-0.829 -4.699,-1.6265 -8.6,-1.7724 -9.0199,-0.3372 -14.8139,-3.3682 -17.5796,-9.1964 -2.704,-5.6982 -2.7268,-7.9683 -0.1349,-13.4302 2.1843,-4.6032 9.1446,-8.7604 14.667,-8.7604 2.6184,0 3.2881,0.6789 3.2881,3.3333 0,1.8793 -0.7711,3.3334 -1.7676,3.3334 -2.7036,0 -7.8649,6.1345 -7.3531,8.7397 0.7129,3.6288 6.4842,7.1157 14.1566,8.5532 9.9451,1.8634 12.0793,3.2472 11.2995,7.3265 -0.6974,3.6478 -5.1546,4.6947 -7.976,1.8733 z m -626.1936,-2.7465 c -1.6958,-0.9491 -1.8732,-1.8015 -0.7944,-3.8174 1.0223,-1.9101 2.8026,-2.5955 6.7417,-2.5955 6.0264,0 13.6543,3.3645 12.8818,5.6819 -0.623,1.869 -15.7465,2.4561 -18.8291,0.731 z m 317.2844,-0.027 c -1.6507,-0.9238 -1.8197,-1.7828 -0.7454,-3.79 2.014,-3.7632 12.9583,-3.6264 17.8523,0.2232 1.9708,1.5502 3.2344,3.1676 2.8079,3.5941 -1.2812,1.2812 -17.6166,1.2588 -19.9148,-0.027 z m 142.546,-13.0594 c -1.1397,-2.204 -4.4551,-5.5115 -7.3675,-7.3501 -3.8565,-2.4344 -5.2954,-4.244 -5.2954,-6.6594 0,-2.7435 0.6451,-3.3166 3.7331,-3.3166 10.9342,0 24.9823,18.068 15.9336,20.493 -4.5693,1.2245 -4.7828,1.1279 -7.0038,-3.1669 z m -472.4523,-1.3261 c 0,-1.8333 0.3026,-2.5833 0.6725,-1.6667 0.3699,0.9167 0.3699,2.4167 0,3.3334 -0.3699,0.9166 -0.6725,0.1666 -0.6725,-1.6667 z m 317.3333,0 c 0,-1.8333 0.3026,-2.5833 0.6725,-1.6667 0.3699,0.9167 0.3699,2.4167 0,3.3334 -0.3699,0.9166 -0.6725,0.1666 -0.6725,-1.6667 z m 89.1124,-0.019 c -0.7907,-1.4773 -3.8118,-4.1849 -6.7136,-6.0167 -3.9544,-2.4963 -5.276,-4.2051 -5.276,-6.8216 0,-3.2683 0.3085,-3.441 4.835,-2.7065 6.0528,0.9822 12.8672,5.5716 15.9026,10.7101 2.2232,3.7636 2.2177,4.0123 -0.1282,5.7277 -3.5141,2.5695 -6.9577,2.2128 -8.6198,-0.893 z m -553.6563,-5.4249 c -2.75,-2.8723 -5,-6.5008 -5,-8.0634 0,-2.5255 0.5416,-2.7532 4.8748,-2.05 7.9146,1.2843 16.6926,11.5669 12.2679,14.3705 -3.4926,2.213 -7.1884,0.9173 -12.1427,-4.2571 z m 289.3334,0 c -5.6115,-5.8609 -6.6103,-10.5556 -2.2457,-10.5556 5.2219,0 11.2008,4.3545 14.5363,10.5869 1.3391,2.5021 1.3101,3.3018 -0.153,4.2289 -3.4874,2.2099 -7.1856,0.9119 -12.1376,-4.2602 z m 501.4874,1.8296 c -1.9319,-2.0452 -4.4819,-4.4922 -5.6667,-5.4378 -4.8,-3.831 -1.3013,-8.0264 5.3099,-6.3671 4.5681,1.1465 11.3906,8.7028 10.9127,12.0864 -0.6035,4.2725 -6.4001,4.1179 -10.5559,-0.2815 z m -667.8208,-0.5407 c 0,-0.8471 -1.1845,-1.1791 -2.7482,-0.7702 -1.682,0.4399 -3.0306,-0.017 -3.476,-1.1778 -0.5208,-1.3573 -3.0755,-1.8965 -8.9851,-1.8965 -8.7865,0 -11.5404,-1.3942 -10.5132,-5.3225 0.8056,-3.0805 3.8461,-3.8666 11.9518,-3.0899 9.1619,0.8778 13.61,2.9007 15.8336,7.2007 2.4669,4.7703 2.4498,6.545 -0.063,6.545 -1.1,0 -2,-0.6699 -2,-1.4888 z m 20.0444,-1.791 c -1.5424,-1.8585 -1.501,-2.5017 0.2756,-4.2782 1.1499,-1.1499 2.7484,-1.6844 3.5521,-1.1877 1.9063,1.1782 1.8436,2.3798 -0.2755,5.278 -1.6039,2.1934 -1.8758,2.2078 -3.5522,0.1879 z m 317.9273,0.091 c -2.1561,-1.5766 -2.2701,-2.178 -0.7581,-3.9999 3.6756,-4.4288 7.4936,-0.7555 4.3541,4.1889 -0.8361,1.3167 -1.591,1.277 -3.596,-0.189 z m -295.9717,-3.3392 c -6.8381,-0.6881 -8.0588,-1.2172 -8.4048,-3.6429 -0.3471,-2.4335 0.4128,-2.9372 5.3333,-3.5347 3.156,-0.3833 8.7382,-0.5685 12.4049,-0.4115 6.4219,0.2749 6.6666,0.4291 6.6666,4.2014 0,4.4711 -1.6859,4.8281 -16,3.3877 z m 156.0754,-0.016 c -0.3374,-0.5459 -0.2724,-2.2966 0.1445,-3.8905 0.6456,-2.4691 1.7083,-2.8981 7.1791,-2.8981 4.9445,0 6.5916,0.5366 7.1619,2.3333 0.4073,1.2834 0.5977,2.8422 0.4232,3.4641 -0.3999,1.4245 -14.0788,2.334 -14.9087,0.9912 z m 161.258,0.016 c -6.8377,-0.688 -8.0588,-1.2173 -8.4048,-3.6424 -0.3598,-2.522 0.3814,-2.9113 6.6667,-3.5017 3.8893,-0.3654 9.4714,-0.5818 12.4047,-0.481 4.9918,0.1715 5.3334,0.4385 5.3334,4.1684 0,4.5496 -1.6329,4.9024 -16,3.4567 z"
         id="path4816"
         inkscape:connector-curvature="0" />
      <path
         style="display:inline;fill:#0a0a0a;stroke-width:1.33333337"
         d="m 5740.2056,3380.5357 c 1.2973,-0.338 3.0973,-0.3158 4,0.049 0.9027,0.3653 -0.1587,0.6418 -2.3587,0.6147 -2.2,-0.027 -2.9386,-0.326 -1.6413,-0.6641 z m 9.9746,0.041 c 0.9167,-0.3699 1.6667,-1.4029 1.6667,-2.2956 0,-0.8927 0.75,-3.2607 1.6666,-5.2623 1.2796,-2.7939 2.3446,-3.4739 4.585,-2.9276 3.7097,0.9046 5.5253,-1.8554 2.6187,-3.9808 -1.212,-0.8862 -2.2037,-2.8952 -2.2037,-4.4644 0,-2.9665 1.903,-3.8341 3.3334,-1.5196 1.5919,2.5758 3.3333,1.2945 3.3333,-2.4527 0,-2.7445 -0.917,-4.2038 -3.3333,-5.3047 -2.9874,-1.3611 -3.3334,-2.3067 -3.3334,-9.1091 0,-5.16 0.6993,-8.3629 2.184,-10.0035 1.7493,-1.9329 1.8591,-2.8048 0.5519,-4.3799 -1.6727,-2.0156 -0.8997,-4.7501 1.3428,-4.7501 0.6901,0 1.2547,0.9188 1.2547,2.0418 0,1.123 0.9,2.3872 2,2.8093 1.6395,0.6292 1.9947,3.9258 1.9707,18.2915 -0.033,19.5934 -2.0013,26.6541 -8.3801,30.0583 -1.9248,1.0272 -3.1847,2.3772 -2.7998,3 0.3849,0.6228 -1.2855,1.085 -3.7121,1.0271 -2.4267,-0.058 -3.6621,-0.4079 -2.7454,-0.7777 z m 33.3333,0 c 0.9167,-0.3699 2.4167,-0.3699 3.3334,0 0.9166,0.3698 0.1666,0.6725 -1.6667,0.6725 -1.8333,0 -2.5833,-0.3027 -1.6667,-0.6725 z m 13.2416,-1.6353 c 0.436,-1.6674 1.7452,-2.4559 3.8742,-2.3334 3.0746,0.1769 4.734,2.185 1.8055,2.185 -0.7766,0 -1.0412,0.6 -0.5879,1.3334 0.4642,0.7511 -0.6112,1.3333 -2.4632,1.3333 -2.5662,0 -3.1427,-0.5523 -2.6286,-2.5183 z m 77.4251,1.5773 c 1.65,-0.3178 4.35,-0.3178 6,0 1.65,0.3178 0.3,0.5779 -3,0.5779 -3.3,0 -4.65,-0.2601 -3,-0.5779 z m 18.6667,0.058 c 0.9166,-0.3699 2.4166,-0.3699 3.3333,0 0.9167,0.3698 0.1667,0.6725 -1.6667,0.6725 -1.8333,0 -2.5833,-0.3027 -1.6666,-0.6725 z m 39.5278,-3.0572 c -0.076,-2.1637 -1.1401,-5.4624 -2.364,-7.3303 -1.8742,-2.8603 -3.2374,-3.3962 -8.639,-3.3962 -7.4177,0 -8.6063,-0.7336 -6.7643,-4.1753 0.8339,-1.5582 2.7891,-2.4913 5.2201,-2.4913 5.479,0 6.8256,-3.1382 4.5421,-10.585 -1.0256,-3.3449 -2.486,-8.3317 -3.2452,-11.0817 -1.5579,-5.6433 -4.6837,-6.5966 -6.5579,-2 -0.6727,1.65 -3.152,9.9 -5.5094,18.3333 -4.2392,15.1647 -6.661,20 -10.0173,20 -0.9499,0 -2.3119,1.045 -3.0267,2.3223 -0.7148,1.2772 -1.6251,1.9967 -2.0229,1.5988 -0.8785,-0.8785 0.1896,-4.7605 9.4433,-34.3216 l 7.221,-23.0673 6.7307,0.4006 6.7307,0.4006 10.0349,28.6666 c 5.5192,15.7667 10.7087,29.1075 11.5322,29.6463 0.8235,0.5388 -1.8028,0.9874 -5.8361,0.9969 -7.2048,0.017 -7.3358,-0.052 -7.4722,-3.9167 z m 97.4722,3.1703 c 0.738,-0.3096 1.1327,-3.7769 0.884,-7.7658 -0.247,-3.9635 0.2542,-8.5208 1.114,-10.1273 l 1.5633,-2.921 3.1073,2.9192 c 2.4329,2.2856 3.204,4.6285 3.5527,10.7944 l 0.4453,7.8753 -6,-0.1077 c -3.3,-0.059 -5.4,-0.3594 -4.6666,-0.6671 z m 69.3333,-7e-4 c 0.8482,-0.3563 1.194,-11.2331 0.9504,-29.8947 l -0.3829,-29.3347 h 4.6676 4.6675 l 0.3821,30.0012 c 0.2101,16.5006 -0.068,30.0006 -0.618,30 -0.55,-7e-4 -1,-0.6012 -1,-1.3345 0,-0.7334 -1.2354,-1.3334 -2.7454,-1.3334 -1.5099,0 -2.3745,0.6 -1.9213,1.3334 0.4639,0.7505 -0.5217,1.2873 -2.2546,1.228 -1.6933,-0.058 -2.4787,-0.3573 -1.7454,-0.6653 z m 93.6822,-0.1724 c 1.6586,-0.3189 4.0586,-0.3068 5.3333,0.027 1.2748,0.3337 -0.082,0.5947 -3.0155,0.5799 -2.9333,-0.015 -3.9763,-0.2879 -2.3178,-0.6068 z m 157.6511,-0.3903 c 0,-0.7334 -1.4358,-1.3334 -3.1906,-1.3334 -1.7549,0 -3.5549,-0.949 -4,-2.109 -0.4452,-1.16 -0.8094,-14.06 -0.8094,-28.6667 v -26.5576 h 4.618 4.618 l 0.382,30.0012 c 0.2101,16.5006 -0.068,30.0006 -0.618,30 -0.55,-7e-4 -1,-0.6012 -1,-1.3345 z m 52.3587,0.4093 c 1.2973,-0.338 3.0973,-0.3158 4,0.049 0.9027,0.3652 -0.1587,0.6418 -2.3587,0.6147 -2.2,-0.027 -2.9386,-0.326 -1.6413,-0.6641 z m 12.6413,0.041 c 0.9167,-0.3699 1.6667,-1.4994 1.6667,-2.51 0,-1.0107 2.3562,-2.472 5.236,-3.2475 2.9916,-0.8055 6.7066,-3.1575 8.6667,-5.487 3.26,-3.8743 3.4306,-4.8576 3.4306,-19.7681 0,-18.2472 -1.0481,-20.1551 -11.749,-21.3856 -5.1225,-0.589 -6.251,-1.2002 -6.251,-3.3855 0,-2.2709 1.0219,-2.7259 6.8856,-3.0657 4.0224,-0.2331 8.8936,0.44 11.7146,1.6187 7.1556,2.9898 8.7342,8.0066 8.7282,27.7375 -0.01,18.4502 -1.9501,23.9994 -9.3944,26.8092 -2.1637,0.8168 -3.934,1.9534 -3.934,2.526 0,0.5725 -3.75,0.9936 -8.3333,0.9357 -4.5833,-0.058 -7.5833,-0.4079 -6.6667,-0.7777 z m -718.3333,-3.117 c 0,-0.7333 0.9354,-1.3333 2.0787,-1.3333 1.1433,0 1.7079,0.6 1.2546,1.3333 -0.4532,0.7333 -1.3886,1.3333 -2.0787,1.3333 -0.69,0 -1.2546,-0.6 -1.2546,-1.3333 z m 36.2891,-0.7476 c -5.8747,-4.1148 -6.9558,-8.5234 -6.9558,-28.3662 0,-18.2413 0.059,-18.6184 3.2638,-20.718 1.7951,-1.1762 3.5427,-1.6874 3.8834,-1.136 1.1518,1.8635 1.3648,39.7274 0.2338,41.5573 -0.7071,1.1442 -0.3927,2.3563 0.8506,3.2794 2.0885,1.5506 4.1538,7.4644 2.6069,7.4644 -0.5015,0 -2.2487,-0.9364 -3.8827,-2.0809 z m -1.6224,-13.9191 c 0,-0.7333 -0.6,-1.3333 -1.3334,-1.3333 -0.7333,0 -1.3333,0.6 -1.3333,1.3333 0,0.7334 0.6,1.3334 1.3333,1.3334 0.7334,0 1.3334,-0.6 1.3334,-1.3334 z m 49.7978,11.1061 c 0.2842,-4.4429 0.7515,-5.1061 3.5977,-5.1061 2.7435,0 3.3407,0.7281 3.7024,4.5136 0.3619,3.7878 0.067,4.3737 -1.8357,3.6437 -1.2468,-0.4785 -3.0598,-0.2119 -4.029,0.5925 -1.4156,1.1749 -1.6978,0.4585 -1.4354,-3.6437 z m 27.5355,2.1685 c 0,-2.0767 0.8018,-2.5892 3.7048,-2.368 2.0377,0.1553 4.4419,-0.1732 5.3428,-0.73 0.9798,-0.6055 1.9681,-0.1516 2.4599,1.1298 1.1295,2.9436 0.1148,3.6331 -6.1247,4.1621 -4.6359,0.3931 -5.3828,0.089 -5.3828,-2.1939 z m 177.3333,0.6836 c 0,-1.077 0.9,-1.9582 2,-1.9582 1.1,0 2,0.5358 2,1.1907 0,0.6549 -0.9,1.5361 -2,1.9582 -1.2182,0.4675 -2,0 -2,-1.1907 z m 257.3334,0.2967 c 0,-2.6341 2.7743,-5.5062 8.4095,-8.7059 8.9455,-5.0793 12.2836,-2.5149 5.2571,4.0387 -6.3923,5.962 -13.6666,8.4462 -13.6666,4.6672 z m 65.3333,0.5209 c 0,-3.2349 2.0989,-5.7788 6.7079,-8.1301 4.21,-2.1478 5.1959,-3.4634 5.9527,-7.9432 0.5587,-3.3069 1.6303,-5.3691 2.7899,-5.3691 1.0356,0 1.8828,-0.9 1.8828,-2 0,-3.2276 2.5423,-2.2931 3.4347,1.2625 1.7134,6.8266 -4.8906,17.4038 -13.6803,21.9108 -3.5262,1.8081 -7.0877,1.9433 -7.0877,0.2691 z m 91.476,-0.8848 c -1.4883,-3.8785 -0.8334,-6.5678 2.036,-8.3598 2.3732,-1.4821 3.0336,-1.48 3.9796,0.013 1.7436,2.7511 1.4133,4.3643 -1.5435,7.5381 -3.245,3.4831 -3.4329,3.5171 -4.4721,0.809 z m 85.277,0.9154 c -0.4057,-0.6565 0.2447,-1.5706 1.4455,-2.0314 2.5958,-0.9961 3.7452,-0.1747 2.523,1.803 -1.0716,1.7338 -2.9705,1.8431 -3.9685,0.2284 z m -812.612,-4.008 c -5.0189,-4.6883 -5.4258,-8.1317 -0.961,-8.1317 3.5237,0 7.4867,4.9156 7.4867,9.2864 0,3.7004 -1.6387,3.4105 -6.5257,-1.1547 z m 291.1923,2.3287 c -3.6408,-1.9914 -6,-5.156 -6,-8.0486 0,-3.445 5.999,-3.1493 8.4982,0.4189 1.0905,1.557 3.3272,3.507 4.9703,4.3334 1.6432,0.8264 3.235,2.2526 3.5373,3.1692 0.6949,2.1067 -7.2195,2.198 -11.0058,0.1271 z m 173.1246,-1.9252 c -1.2486,-1.9057 -2.9759,-6.2441 -3.8384,-9.6409 -1.3469,-5.3046 -2.137,-6.2923 -5.6003,-7.0007 -2.2177,-0.4535 -5.4543,-2.1885 -7.1924,-3.8554 l -3.1601,-3.0307 4.6979,0.8333 c 3.3292,0.5906 5.6601,0.171 8,-1.4401 2.3924,-1.6471 2.8639,-1.7277 1.7117,-0.2923 -2.0074,2.5005 -0.2275,5.583 2.5977,4.4989 1.3836,-0.531 2.8967,0.3576 4.3274,2.5411 2.0506,3.1296 2.043,3.6883 -0.1116,8.2289 -1.9351,4.078 -2.0115,5.0567 -0.4692,6.01 1.1254,0.6955 2.2173,0.532 2.8059,-0.4203 1.2917,-2.0901 3.0033,2.3092 1.958,5.033 -1.1354,2.9589 -3.1688,2.4388 -5.7266,-1.4648 z m 88.8754,1.5435 c 0,-1.0567 0.5372,-2.2533 1.1937,-2.659 1.3725,-0.8483 3.0275,2.5814 1.8256,3.7833 -1.4307,1.4307 -3.0193,0.8391 -3.0193,-1.1243 z m 65.3334,0 c 0,-1.0567 0.5371,-2.2533 1.1936,-2.659 1.3725,-0.8483 3.0275,2.5814 1.8256,3.7833 -1.4307,1.4307 -3.0192,0.8391 -3.0192,-1.1243 z m 89.6384,0.1754 c -4.0716,-5.2839 -2.7768,-6.7105 2.185,-2.4073 2.3096,2.0032 2.5062,2.6639 0.9681,3.2541 -1.0614,0.4073 -2.4803,0.026 -3.1531,-0.8468 z m 82.1328,-0.3633 c -3.3428,-1.7515 -6.8911,-7.6598 -5.4598,-9.0911 1.8218,-1.8218 7.0215,-0.6251 8.3894,1.9308 0.8037,1.5018 2.9248,3.2869 4.7136,3.967 1.7887,0.6801 3.2509,2.0014 3.2492,2.9362 0,2.2538 -6.7764,2.4137 -10.8924,0.2571 z m -779.7712,-0.5575 c -1.7092,-1.1045 -1.6608,-1.2954 0.3333,-1.3129 1.2833,-0.011 2.3333,0.5796 2.3333,1.3129 0,1.6262 -0.1503,1.6262 -2.6666,0 z m 191.3467,-0.022 c 0.4607,-0.7453 1.3961,-1.0099 2.0787,-0.588 1.8494,1.143 1.5046,1.9431 -0.8375,1.9431 -1.1432,0 -1.7018,-0.6098 -1.2412,-1.3551 z m -33.5105,-4.2432 c -0.846,-1.3689 -1.0843,-5.3399 -0.6241,-10.4017 0.067,-0.7334 1.0212,-1.3334 2.1212,-1.3334 1.3016,0 2,1.3037 2,3.7334 0,2.0533 0.6677,4.401 1.4838,5.2171 0.8161,0.8161 1.0807,2.1361 0.588,2.9334 -1.1921,1.9287 -4.3368,1.8447 -5.5689,-0.1488 z m 317.7193,0.7094 c -0.4889,-0.4889 -0.8889,-3.4889 -0.8889,-6.6667 0,-4.2469 0.53,-5.7778 2,-5.7778 1.3207,0 2,1.321 2,3.8889 0,2.1389 0.708,4.1249 1.5732,4.4133 2.0769,0.6923 0.3729,5.0312 -1.9758,5.0312 -1.0008,0 -2.2196,-0.4 -2.7085,-0.8889 z m 58.4591,-2.0045 -3.6321,-2.857 3.8087,-1.606 c 4.6527,-1.9618 5.8088,-1.4265 5.8088,2.6897 0,4.5232 -1.8083,5.059 -5.9854,1.7733 z m 65.3334,0 -3.6321,-2.857 3.8087,-1.606 c 4.6527,-1.9618 5.8087,-1.4265 5.8087,2.6897 0,4.5232 -1.8083,5.059 -5.9853,1.7733 z m 219.4239,-1.8844 c 0.064,-1.5533 0.3799,-1.8692 0.8055,-0.8056 0.3852,0.9625 0.3378,2.1125 -0.1052,2.5556 -0.443,0.443 -0.7581,-0.3445 -0.7002,-1.75 z m -836,-1.3333 c 0.064,-1.5533 0.3799,-1.8692 0.8056,-0.8056 0.3851,0.9625 0.3377,2.1125 -0.1053,2.5556 -0.4431,0.443 -0.7582,-0.3445 -0.7003,-1.75 z m 709.7517,-3.1496 c -0.7463,-4.6673 -1.3005,-5.3065 -4.9131,-5.6667 -5.0437,-0.5029 -6.0898,-3.0322 -2.1304,-5.1512 2.4774,-1.3259 3.2572,-1.2071 4.6589,0.7099 0.926,1.2663 2.3613,1.8835 3.1896,1.3716 2.6862,-1.6602 6.9205,3.4896 5.973,7.2646 -2.0003,7.97 -5.6134,8.7545 -6.778,1.4718 z m 27.7633,-1.7672 c -1.5591,-1.6596 -2.863,-4.2072 -2.8975,-5.6614 -0.035,-1.4543 -0.4285,-5.2369 -0.8753,-8.406 -0.6745,-4.7839 -0.3344,-6.2073 2.0034,-8.3853 3.3216,-3.0945 3.5197,-5.0791 0.8582,-8.5979 -1.0767,-1.4235 -1.9767,-3.9382 -2,-5.5882 -0.035,-2.4539 0.6858,-3 3.9576,-3 h 4 v 13.8374 c 0,12.8388 -0.2148,13.98 -2.9768,15.8139 l -2.9769,1.9765 2.585,4.8001 c 3.0998,5.7558 2.2468,7.3883 -1.6777,3.2109 z m -588.3871,-5.2533 c -1.6453,-2.2313 -3.899,-2.9784 -10.4044,-3.4489 -7.5541,-0.5465 -8.2677,-0.8568 -7.8998,-3.4353 0.3507,-2.4587 1.2884,-2.8346 7.071,-2.8346 3.6667,0 7.3511,-0.4449 8.1875,-0.9886 1.9092,-1.241 5.0993,3.5309 6.2318,9.3219 0.9741,4.9813 -0.1684,5.4781 -3.1861,1.3855 z m 167.551,-3.1588 c -4.65,-2.2685 -7.0295,-2.7964 -8.2057,-1.8201 -3.2934,2.7332 -11.7908,-1.6187 -15.0494,-7.7075 -4.0465,-7.5611 -0.1624,-15.8224 9.2005,-19.5687 8.6106,-3.4453 11.2316,0.4066 3.5524,5.2206 -3.3155,2.0784 -4.3722,3.7563 -4.6819,7.4341 -0.3706,4.4007 0,4.9288 5,7.1849 2.9699,1.3392 5.3999,3.249 5.3999,4.2438 0,1.4415 0.513,1.4885 2.5264,0.2311 3.8071,-2.3776 11.6198,0.1972 11.0289,3.6347 -0.742,4.3157 -1.9519,4.474 -8.7711,1.1471 z m -288.5475,-0.045 c -5.6904,-2.4849 -4.7819,-5.2295 1.6621,-5.0209 5.7197,0.1851 7.8816,1.7898 6.669,4.95 -1.0124,2.6381 -2.4246,2.6502 -8.3311,0.071 z m 790.43,0.9475 c -1.1,-0.5762 -3.397,-1.7754 -5.1045,-2.6648 -2.3732,-1.2362 -3.5469,-1.2499 -4.9827,-0.058 -2.8625,2.3756 -7.828,0.4688 -12.4309,-4.7735 -8.4187,-9.5884 -4.0151,-19.9497 10.1848,-23.9638 4.5656,-1.2907 3.8922,3.5037 -1,7.1208 -3.1381,2.3201 -4,3.9774 -4,7.6913 0,4.285 0.5059,4.9327 5.3333,6.829 2.9333,1.1523 5.3333,2.589 5.3333,3.1928 0,0.6037 1.65,0.769 3.6667,0.3674 2.0167,-0.4017 5.3408,-0.092 7.387,0.6873 3.2014,1.22 3.5203,1.7915 2.2864,4.0971 -1.5054,2.8129 -3.3434,3.2191 -6.6734,1.4747 z m -704,-16.1288 c 0,-9.7778 0.5185,-16 1.3333,-16 0.7334,0 1.3334,1.2562 1.3334,2.7915 0,1.6545 1.0681,3.0708 2.6225,3.4773 3.6199,0.9466 4.4031,4.361 3.32,14.4746 -0.682,6.3689 -1.5696,9.0101 -3.3477,9.9617 -4.9171,2.6316 -5.2615,1.669 -5.2615,-14.7051 z m 582,14.6667 c -0.4532,-0.7334 0.1113,-1.3334 1.2546,-1.3334 1.1433,0 2.0787,0.6 2.0787,1.3334 0,0.7333 -0.5646,1.3333 -1.2546,1.3333 -0.6901,0 -1.6255,-0.6 -2.0787,-1.3333 z m -683.8171,-1.5244 c -14.2595,-8.2856 -11.5216,-24.4999 4.8171,-28.5275 3.0103,-0.7421 3.6652,-0.4604 3.6582,1.574 0,1.3628 -1.7831,3.4876 -3.9521,4.7217 -4.0314,2.2938 -6.2855,7.4545 -4.8686,11.1467 0.4354,1.1348 2.9001,2.9442 5.4771,4.0209 5.1941,2.1702 5.8582,4.071 2.3521,6.7325 -2.8319,2.1497 -4.2471,2.2125 -7.4838,0.3317 z m 182.7866,-1.0562 c -0.8022,-3.0677 1.881,-4.4254 6.4698,-3.2737 3.8417,0.9642 3.9939,1.645 0.894,3.9982 -3.3768,2.5634 -6.5866,2.2476 -7.3638,-0.7245 z m 11.0305,1.2891 c 0,-0.7103 0.9,-0.9461 2,-0.524 1.1,0.4221 2,1.0032 2,1.2915 0,0.2882 -0.9,0.524 -2,0.524 -1.1,0 -2,-0.5812 -2,-1.2915 z m 306.9081,-1.7085 c 0.3566,-2.5066 1.1513,-2.9428 4.831,-2.6519 2.4223,0.1915 5.6851,1.5415 7.2506,3 3.1893,2.9713 2.3348,3.5016 -1.6412,1.0186 -2.0637,-1.2888 -2.9597,-1.2888 -4.2486,0 -2.8575,2.8575 -6.6731,2.0153 -6.1918,-1.3667 z m -147.3525,-1.8889 c -0.4889,-0.4889 -0.8889,-2.8139 -0.8889,-5.1667 0,-3.6797 0.4683,-4.2778 3.3497,-4.2778 3.5393,0 5.7052,4.3277 4.1692,8.3304 -0.7794,2.0312 -5.0032,2.7409 -6.63,1.1141 z m 103.1111,-5.8384 c 0,-9.1205 -3.9437,-13.2727 -12.6061,-13.2727 -5.6435,0 -6.0606,-0.2395 -6.0606,-3.4791 v -3.4791 l 10.1388,0.512 c 9.4614,0.4778 10.3967,0.8007 14,4.8335 2.7157,3.0394 3.8612,5.7192 3.8612,9.0332 0,6.2634 -3.3645,12.5795 -6.7009,12.5795 -2.2732,0 -2.6324,-0.9181 -2.6324,-6.7273 z m 76,3.1289 c 0,-7.6579 8.288,-18.5873 16.4201,-21.6532 5.383,-2.0295 6.2465,-1.7952 6.2465,1.6948 0,2.1312 -1.5736,4.1256 -5,6.3368 -3.5793,2.31 -5.7475,5.1517 -7.6308,10.0012 -2.2857,5.8856 -3.1166,6.7743 -6.3333,6.7743 -3.0043,0 -3.7025,-0.5947 -3.7025,-3.1539 z m 65.3363,-0.1111 c -0.01,-7.5438 8.3397,-18.4968 16.4171,-21.5421 5.3831,-2.0295 6.2466,-1.7952 6.2466,1.6948 0,2.1228 -1.5746,4.1332 -4.9603,6.3334 -3.5431,2.3025 -5.7083,5.165 -7.5787,10.0196 -2.3168,6.0133 -3.0506,6.7813 -6.37,6.6667 -2.9785,-0.1029 -3.7522,-0.7566 -3.7547,-3.1724 z m 100.7952,2.1633 c 0.5256,-0.8504 0.8707,-4.0004 0.7668,-7 -0.257,-7.4267 -4.8182,-11.4538 -12.9727,-11.4538 -5.4318,0 -5.9256,-0.2778 -5.9256,-3.3334 0,-3.1912 0.3467,-3.3333 8.1318,-3.3333 9.9359,0 16.3888,2.8191 18.584,8.1187 1.8271,4.411 1.0347,13.6354 -1.4259,16.6003 -1.9491,2.3485 -8.592,2.7211 -7.1584,0.4015 z m -560.0209,-6.2749 c -0.5744,-0.9293 -0.6842,-2.0498 -0.2442,-2.4899 1.1933,-1.1932 2.4944,0.5618 1.8499,2.4953 -0.4516,1.3549 -0.7657,1.3538 -1.6057,-0.01 z m 501.1742,-2.9394 c -1.1643,-2.2516 -4.1797,-5.3108 -6.7009,-6.7984 -3.2547,-1.9203 -4.5839,-3.659 -4.5839,-5.996 0,-2.7987 0.4491,-3.153 3,-2.3661 9.2051,2.8396 17,9.5522 17,14.6397 0,2.7072 -2.2355,4.6146 -5.4082,4.6146 -0.6545,0 -2.1427,-1.8422 -3.307,-4.0938 z m -66.0034,-1.3125 c -1.5538,-2.182 -4.5777,-4.8736 -6.7199,-5.9814 -2.7544,-1.4244 -3.8949,-3.0064 -3.8949,-5.4031 0,-2.8997 0.4331,-3.2553 3,-2.4635 8.0102,2.471 17,9.4698 17,13.235 0,0.8752 -1.476,2.2638 -3.2801,3.0858 -2.9224,1.3315 -3.5883,1.0619 -6.1051,-2.4728 z m -552.9481,-4.6679 c -4.5881,-4.6195 -6.0684,-10.8769 -2.2243,-9.4018 1.16,0.4451 2.6173,0.8093 3.2384,0.8093 2.0953,0 10.6526,8.9628 10.6526,11.1575 0,3.7738 -6.8715,2.2631 -11.6667,-2.565 z m 288.519,-0.6901 c -6.0935,-6.1671 -5.928,-9.7404 0.3677,-7.9349 5.4313,1.5577 6.78,2.5081 6.78,4.7779 0,1.0567 0.8358,1.9213 1.8573,1.9213 1.747,0 3.476,2.7071 3.476,5.4424 0,0.6733 -1.65,1.1745 -3.6667,1.1137 -2.4031,-0.073 -5.4405,-1.9059 -8.8143,-5.3204 z m 502.6699,2.1988 c -1.1648,-1.7778 -3.3338,-3.6182 -4.82,-4.0899 -2.5946,-0.8235 -3.775,-5.2643 -1.7022,-6.4035 1.4948,-0.8216 9.6666,1.632 9.6666,2.9023 0,0.6053 1.5098,2.7296 3.3551,4.7207 1.8453,1.9911 3.0099,4.1787 2.588,4.8614 -1.5064,2.4374 -6.9703,1.2403 -9.0875,-1.991 z m -670.1889,-3.0735 c -1.1,-0.3147 -2.9,-0.9139 -4,-1.3315 -1.1,-0.4175 -6.0991,-0.6139 -11.1091,-0.4363 -8.8665,0.3143 -9.0973,0.2397 -8.6666,-2.8018 0.5633,-3.9792 5.6758,-4.8985 9.2505,-1.6634 1.9842,1.7957 2.9543,1.9763 4.1567,0.7738 2.3016,-2.3016 6.9805,-1.9134 10.4101,0.8637 3.2417,2.625 3.2155,5.5275 -0.042,4.5955 z m 37.3917,-2.9916 c -0.9791,-0.6051 -1.4117,-2.0608 -0.9612,-3.2348 0.9781,-2.5487 13.695,-3.0914 14.5189,-0.6196 0.3602,1.0805 1.3386,0.9944 3.4112,-0.3 3.3826,-2.1124 6.5251,-0.113 5.2098,3.3148 -0.6083,1.585 -2.9798,2.0309 -10.5911,1.9911 -5.394,-0.028 -10.6084,-0.5463 -11.5876,-1.1515 z m 163.6663,0.5775 c -0.4809,-0.4809 -0.5514,-1.7156 -0.1568,-2.7439 1.0267,-2.6755 11.0988,-2.5572 11.0988,0.1303 0,1.1 -1.05,2.0082 -2.3333,2.0182 -1.2834,0.01 -3.5486,0.3448 -5.0339,0.7439 -1.4853,0.3991 -3.094,0.3323 -3.5748,-0.1485 z m 153.942,-0.1887 c -0.9167,-0.3559 -1.6667,-1.8297 -1.6667,-3.2752 0,-2.446 0.8087,-2.6 11.6667,-2.2222 10.6425,0.3702 11.6667,0.64 11.6667,3.0725 0,2.4116 -0.9565,2.6861 -10,2.8694 -5.5,0.1114 -10.75,-0.089 -11.6667,-0.4445 z m -74,-8.0325 c 1.65,-0.3178 4.35,-0.3178 6,0 1.65,0.3178 0.3,0.5778 -3,0.5778 -3.3,0 -4.65,-0.26 -3,-0.5778 z m 16.0155,0 c 1.6586,-0.3189 4.0586,-0.3068 5.3334,0.027 1.2748,0.3337 -0.082,0.5946 -3.0156,0.5798 -2.9333,-0.015 -3.9763,-0.2878 -2.3178,-0.6067 z m 226.6512,0 c 1.65,-0.3178 4.35,-0.3178 6,0 1.65,0.3178 0.3,0.5778 -3,0.5778 -3.3,0 -4.65,-0.26 -3,-0.5778 z m 16.6666,0.022 c 1.2834,-0.3354 3.3834,-0.3354 4.6667,0 1.2833,0.3353 0.2333,0.6097 -2.3333,0.6097 -2.5667,0 -3.6167,-0.2744 -2.3334,-0.6097 z m 41.3587,0 c 1.2973,-0.3381 3.0973,-0.3159 4,0.049 0.9027,0.3652 -0.1587,0.6418 -2.3587,0.6146 -2.2,-0.027 -2.9386,-0.326 -1.6413,-0.664 z m 15.3235,-0.019 c 1.6586,-0.3189 4.0586,-0.3068 5.3334,0.027 1.2748,0.3337 -0.082,0.5946 -3.0156,0.5798 -2.9333,-0.015 -3.9763,-0.2878 -2.3178,-0.6067 z"
         id="path4814"
         inkscape:connector-curvature="0" />
    </g>
  </g>
</svg>
