<?xml version="1.0" encoding="UTF-8" standalone="no"?>
<!DOCTYPE svg PUBLIC "-//W3C//DTD SVG 20010904//EN"
              "http://www.w3.org/TR/2001/REC-SVG-20010904/DTD/svg10.dtd">

<svg xmlns="http://www.w3.org/2000/svg"
     width="0.466667in" height="0.466667in"
     viewBox="0 0 42 42">
  <path id="sign"
        fill="#f6b601" stroke="none" stroke-width="1"
        d="M 18.00,15.07
           C 18.00,15.07 13.02,15.07 13.02,15.07
             9.09,15.78 8.07,18.31 10.37,19.98
             12.06,21.21 15.93,20.99 18.00,21.00
             18.00,21.00 18.00,26.16 18.00,26.16
             16.57,26.01 13.42,25.94 12.15,26.16
             8.94,27.26 8.88,30.20 11.32,31.40
             12.79,32.13 16.29,31.99 18.00,32.00
             18.88,39.40 23.38,39.45 24.00,32.00
             25.86,32.00 30.12,32.17 31.68,31.40
             34.15,30.19 34.31,26.88 29.94,26.07
             29.94,26.07 24.00,26.07 24.00,26.07
             24.00,26.07 24.00,20.93 24.00,20.93
             24.00,20.93 29.94,20.93 29.94,20.93
             34.31,20.12 34.15,16.81 31.68,15.60
             30.12,14.83 25.86,15.00 23.93,15.00
             23.93,15.00 23.93,9.06 23.93,9.06
             23.15,4.85 20.06,4.70 18.74,7.30
             17.85,9.03 18.01,12.99 18.00,15.07 Z" />
</svg>
